<svg xmlns="http://www.w3.org/2000/svg" xmlns:xlink="http://www.w3.org/1999/xlink" width="300" zoomAndPan="magnify" viewBox="0 0 224.87999 225" height="300" preserveAspectRatio="xMidYMid meet" version="1.0"><defs><g/><clipPath id="711f11d8e5"><path d="M 65.503906 109.285156 L 159.207031 109.285156 L 159.207031 176.746094 L 65.503906 176.746094 Z M 65.503906 109.285156 " clip-rule="nonzero"/></clipPath></defs><g clip-path="url(#711f11d8e5)"><path fill="#00bf63" d="M 112.453125 122.402344 C 112.453125 122.402344 109.121094 127.65625 108.632812 137.425781 C 108.167969 147.171875 112.453125 152.121094 112.453125 152.121094 C 112.453125 152.121094 116.738281 147.167969 116.25 137.425781 C 115.757812 127.65625 112.453125 122.402344 112.453125 122.402344 Z M 118.707031 157.8125 C 122.582031 144.203125 133.914062 138.296875 148 139.359375 C 148 139.359375 145.40625 155.390625 127.660156 155.851562 C 127.660156 155.851562 135.988281 151.117188 137.761719 145.917969 C 128.535156 147.28125 122.964844 152.75 118.707031 157.8125 Z M 112.453125 156.914062 C 112.453125 156.914062 102.378906 146.84375 104.152344 130.378906 C 105.902344 113.914062 112.453125 109.285156 112.453125 109.285156 C 112.453125 109.285156 118.980469 113.914062 120.726562 130.378906 C 122.5 146.84375 112.453125 156.914062 112.453125 156.914062 Z M 106.175781 157.8125 C 102.296875 144.203125 90.96875 138.296875 76.878906 139.359375 C 76.878906 139.359375 79.472656 155.390625 97.21875 155.851562 C 97.21875 155.851562 88.894531 151.117188 87.117188 145.917969 C 96.34375 147.28125 101.914062 152.75 106.171875 157.8125 Z M 77.289062 169.980469 C 78.488281 168.617188 79.9375 167.582031 81.382812 166.820312 C 92.523438 160.96875 105.054688 168.019531 112.453125 176.863281 C 119.824219 168.019531 132.355469 160.96875 143.492188 166.820312 C 144.941406 167.582031 146.386719 168.617188 147.589844 169.980469 C 140.082031 172.320312 133.859375 171.175781 127.90625 168.074219 C 126.59375 168.535156 124.929688 169.351562 123.265625 170.6875 C 129.980469 174.523438 134.867188 176.621094 145.242188 175.421875 C 153.324219 174.46875 159.355469 170.929688 159.355469 170.929688 C 144.75 154.328125 130.171875 158.382812 121.242188 163.800781 C 118.785156 162.277344 114.527344 160.671875 112.453125 160.96875 C 110.351562 160.671875 106.117188 162.277344 103.660156 163.800781 C 94.707031 158.382812 80.128906 154.328125 65.523438 170.929688 C 65.523438 170.929688 71.554688 174.46875 79.636719 175.421875 C 90.011719 176.621094 94.898438 174.523438 101.613281 170.6875 C 99.949219 169.355469 98.28125 168.535156 96.972656 168.074219 C 91.046875 171.175781 84.796875 172.320312 77.289062 169.980469 Z M 116.792969 166.929688 C 114.039062 169.136719 112.453125 170.929688 112.453125 170.929688 C 112.453125 170.929688 110.839844 169.136719 108.109375 166.929688 C 110.351562 165.652344 112.453125 165.160156 112.453125 165.160156 C 112.453125 165.160156 114.527344 165.652344 116.792969 166.929688 Z M 116.792969 166.929688 " fill-opacity="1" fill-rule="evenodd"/></g><g fill="#2a6c4c" fill-opacity="1"><g transform="translate(22.499409, 201.758229)"><g><path d="M 7.640625 0 L 6.6875 0 L 5.9375 -2.046875 L 1.96875 -2.046875 L 1.203125 0 L 0.25 0 L 3.46875 -8.546875 L 4.4375 -8.546875 Z M 3.9375 -7.390625 L 2.265625 -2.875 L 5.625 -2.875 Z M 3.9375 -7.390625 "/></g></g></g><g fill="#2a6c4c" fill-opacity="1"><g transform="translate(34.549749, 201.758229)"><g><path d="M 4.28125 0 L 3.359375 0 L 0.25 -8.546875 L 1.21875 -8.546875 L 3.8125 -1.25 L 3.828125 -1.25 L 6.4375 -8.546875 L 7.390625 -8.546875 Z M 4.28125 0 "/></g></g></g><g fill="#2a6c4c" fill-opacity="1"><g transform="translate(46.343983, 201.758229)"><g><path d="M 1.9375 -4.09375 L 1.9375 -0.8125 L 6.484375 -0.8125 L 6.484375 0 L 1.03125 0 L 1.03125 -8.546875 L 6.375 -8.546875 L 6.375 -7.71875 L 1.9375 -7.71875 L 1.9375 -4.890625 L 5.84375 -4.890625 L 5.84375 -4.09375 Z M 1.9375 -4.09375 "/></g></g></g><g fill="#2a6c4c" fill-opacity="1"><g transform="translate(57.540641, 201.758229)"><g><path d="M 6.828125 0 L 5.734375 0 L 3.484375 -3.125 L 1.9375 -3.125 L 1.9375 0 L 1.03125 0 L 1.03125 -8.546875 L 3.65625 -8.546875 C 4.625 -8.546875 5.382812 -8.3125 5.9375 -7.84375 C 6.488281 -7.382812 6.765625 -6.710938 6.765625 -5.828125 C 6.765625 -5.117188 6.570312 -4.535156 6.1875 -4.078125 C 5.800781 -3.628906 5.25 -3.335938 4.53125 -3.203125 Z M 3.625 -7.71875 L 1.9375 -7.71875 L 1.9375 -3.921875 L 3.609375 -3.921875 C 4.328125 -3.921875 4.878906 -4.078125 5.265625 -4.390625 C 5.660156 -4.710938 5.859375 -5.191406 5.859375 -5.828125 C 5.859375 -6.453125 5.664062 -6.921875 5.28125 -7.234375 C 4.894531 -7.554688 4.34375 -7.71875 3.625 -7.71875 Z M 3.625 -7.71875 "/></g></g></g><g fill="#2a6c4c" fill-opacity="1"><g transform="translate(68.993401, 201.758229)"><g><path d="M 1.9375 0 L 1.03125 0 L 1.03125 -8.546875 L 1.9375 -8.546875 Z M 1.9375 0 "/></g></g></g><g fill="#2a6c4c" fill-opacity="1"><g transform="translate(76.12894, 201.758229)"><g><path d="M 3.234375 0.125 C 2.742188 0.125 2.257812 0.0703125 1.78125 -0.03125 C 1.300781 -0.144531 0.867188 -0.3125 0.484375 -0.53125 L 0.59375 -1.375 C 1 -1.15625 1.429688 -0.992188 1.890625 -0.890625 C 2.359375 -0.785156 2.789062 -0.734375 3.1875 -0.734375 C 3.5625 -0.734375 3.898438 -0.78125 4.203125 -0.875 C 4.503906 -0.96875 4.75 -1.117188 4.9375 -1.328125 C 5.125 -1.535156 5.21875 -1.816406 5.21875 -2.171875 C 5.21875 -2.523438 5.132812 -2.8125 4.96875 -3.03125 C 4.800781 -3.25 4.566406 -3.429688 4.265625 -3.578125 C 3.960938 -3.734375 3.609375 -3.878906 3.203125 -4.015625 C 2.429688 -4.253906 1.820312 -4.554688 1.375 -4.921875 C 0.925781 -5.296875 0.703125 -5.789062 0.703125 -6.40625 C 0.703125 -6.90625 0.820312 -7.320312 1.0625 -7.65625 C 1.3125 -7.988281 1.644531 -8.238281 2.0625 -8.40625 C 2.488281 -8.570312 2.953125 -8.65625 3.453125 -8.65625 C 3.835938 -8.65625 4.226562 -8.609375 4.625 -8.515625 C 5.019531 -8.429688 5.40625 -8.296875 5.78125 -8.109375 L 5.640625 -7.25 C 4.898438 -7.613281 4.179688 -7.796875 3.484375 -7.796875 C 3.148438 -7.796875 2.84375 -7.75 2.5625 -7.65625 C 2.28125 -7.570312 2.054688 -7.429688 1.890625 -7.234375 C 1.722656 -7.035156 1.640625 -6.765625 1.640625 -6.421875 C 1.640625 -6.003906 1.804688 -5.675781 2.140625 -5.4375 C 2.472656 -5.207031 2.953125 -4.984375 3.578125 -4.765625 C 4.097656 -4.597656 4.550781 -4.40625 4.9375 -4.1875 C 5.332031 -3.96875 5.632812 -3.695312 5.84375 -3.375 C 6.0625 -3.0625 6.171875 -2.664062 6.171875 -2.1875 C 6.171875 -1.675781 6.035156 -1.25 5.765625 -0.90625 C 5.503906 -0.570312 5.148438 -0.316406 4.703125 -0.140625 C 4.265625 0.0351562 3.773438 0.125 3.234375 0.125 Z M 3.234375 0.125 "/></g></g></g><g fill="#2a6c4c" fill-opacity="1"><g transform="translate(86.984122, 201.758229)"><g><path d="M 1.9375 -4.09375 L 1.9375 -0.8125 L 6.484375 -0.8125 L 6.484375 0 L 1.03125 0 L 1.03125 -8.546875 L 6.375 -8.546875 L 6.375 -7.71875 L 1.9375 -7.71875 L 1.9375 -4.890625 L 5.84375 -4.890625 L 5.84375 -4.09375 Z M 1.9375 -4.09375 "/></g></g></g><g fill="#2a6c4c" fill-opacity="1"><g transform="translate(98.180776, 201.758229)"><g/></g></g><g fill="#2a6c4c" fill-opacity="1"><g transform="translate(105.426074, 201.758229)"><g><path d="M 7.640625 0 L 6.6875 0 L 5.9375 -2.046875 L 1.96875 -2.046875 L 1.203125 0 L 0.25 0 L 3.46875 -8.546875 L 4.4375 -8.546875 Z M 3.9375 -7.390625 L 2.265625 -2.875 L 5.625 -2.875 Z M 3.9375 -7.390625 "/></g></g></g><g fill="#2a6c4c" fill-opacity="1"><g transform="translate(117.476412, 201.758229)"><g><path d="M 3.703125 0 L 1.03125 0 L 1.03125 -8.546875 L 3.703125 -8.546875 C 4.523438 -8.546875 5.234375 -8.375 5.828125 -8.03125 C 6.429688 -7.6875 6.894531 -7.195312 7.21875 -6.5625 C 7.539062 -5.925781 7.703125 -5.164062 7.703125 -4.28125 C 7.703125 -3.382812 7.539062 -2.617188 7.21875 -1.984375 C 6.894531 -1.347656 6.429688 -0.859375 5.828125 -0.515625 C 5.234375 -0.171875 4.523438 0 3.703125 0 Z M 1.9375 -7.734375 L 1.9375 -0.8125 L 3.65625 -0.8125 C 4.625 -0.8125 5.378906 -1.113281 5.921875 -1.71875 C 6.460938 -2.320312 6.734375 -3.171875 6.734375 -4.265625 C 6.734375 -5.367188 6.457031 -6.222656 5.90625 -6.828125 C 5.363281 -7.429688 4.613281 -7.734375 3.65625 -7.734375 Z M 1.9375 -7.734375 "/></g></g></g><g fill="#2a6c4c" fill-opacity="1"><g transform="translate(130.026773, 201.758229)"><g><path d="M 4.28125 0 L 3.359375 0 L 0.25 -8.546875 L 1.21875 -8.546875 L 3.8125 -1.25 L 3.828125 -1.25 L 6.4375 -8.546875 L 7.390625 -8.546875 Z M 4.28125 0 "/></g></g></g><g fill="#2a6c4c" fill-opacity="1"><g transform="translate(141.821005, 201.758229)"><g><path d="M 1.9375 0 L 1.03125 0 L 1.03125 -8.546875 L 1.9375 -8.546875 Z M 1.9375 0 "/></g></g></g><g fill="#2a6c4c" fill-opacity="1"><g transform="translate(148.956545, 201.758229)"><g><path d="M 3.234375 0.125 C 2.742188 0.125 2.257812 0.0703125 1.78125 -0.03125 C 1.300781 -0.144531 0.867188 -0.3125 0.484375 -0.53125 L 0.59375 -1.375 C 1 -1.15625 1.429688 -0.992188 1.890625 -0.890625 C 2.359375 -0.785156 2.789062 -0.734375 3.1875 -0.734375 C 3.5625 -0.734375 3.898438 -0.78125 4.203125 -0.875 C 4.503906 -0.96875 4.75 -1.117188 4.9375 -1.328125 C 5.125 -1.535156 5.21875 -1.816406 5.21875 -2.171875 C 5.21875 -2.523438 5.132812 -2.8125 4.96875 -3.03125 C 4.800781 -3.25 4.566406 -3.429688 4.265625 -3.578125 C 3.960938 -3.734375 3.609375 -3.878906 3.203125 -4.015625 C 2.429688 -4.253906 1.820312 -4.554688 1.375 -4.921875 C 0.925781 -5.296875 0.703125 -5.789062 0.703125 -6.40625 C 0.703125 -6.90625 0.820312 -7.320312 1.0625 -7.65625 C 1.3125 -7.988281 1.644531 -8.238281 2.0625 -8.40625 C 2.488281 -8.570312 2.953125 -8.65625 3.453125 -8.65625 C 3.835938 -8.65625 4.226562 -8.609375 4.625 -8.515625 C 5.019531 -8.429688 5.40625 -8.296875 5.78125 -8.109375 L 5.640625 -7.25 C 4.898438 -7.613281 4.179688 -7.796875 3.484375 -7.796875 C 3.148438 -7.796875 2.84375 -7.75 2.5625 -7.65625 C 2.28125 -7.570312 2.054688 -7.429688 1.890625 -7.234375 C 1.722656 -7.035156 1.640625 -6.765625 1.640625 -6.421875 C 1.640625 -6.003906 1.804688 -5.675781 2.140625 -5.4375 C 2.472656 -5.207031 2.953125 -4.984375 3.578125 -4.765625 C 4.097656 -4.597656 4.550781 -4.40625 4.9375 -4.1875 C 5.332031 -3.96875 5.632812 -3.695312 5.84375 -3.375 C 6.0625 -3.0625 6.171875 -2.664062 6.171875 -2.1875 C 6.171875 -1.675781 6.035156 -1.25 5.765625 -0.90625 C 5.503906 -0.570312 5.148438 -0.316406 4.703125 -0.140625 C 4.265625 0.0351562 3.773438 0.125 3.234375 0.125 Z M 3.234375 0.125 "/></g></g></g><g fill="#2a6c4c" fill-opacity="1"><g transform="translate(159.811727, 201.758229)"><g><path d="M 4.359375 0.125 C 3.628906 0.125 2.988281 -0.0507812 2.4375 -0.40625 C 1.894531 -0.757812 1.46875 -1.265625 1.15625 -1.921875 C 0.851562 -2.585938 0.703125 -3.367188 0.703125 -4.265625 C 0.703125 -5.160156 0.851562 -5.9375 1.15625 -6.59375 C 1.457031 -7.25 1.882812 -7.757812 2.4375 -8.125 C 2.988281 -8.488281 3.628906 -8.671875 4.359375 -8.671875 C 5.078125 -8.671875 5.710938 -8.492188 6.265625 -8.140625 C 6.816406 -7.785156 7.242188 -7.28125 7.546875 -6.625 C 7.859375 -5.96875 8.015625 -5.179688 8.015625 -4.265625 C 8.015625 -3.378906 7.863281 -2.609375 7.5625 -1.953125 C 7.257812 -1.296875 6.832031 -0.785156 6.28125 -0.421875 C 5.726562 -0.0546875 5.085938 0.125 4.359375 0.125 Z M 4.359375 -0.734375 C 4.890625 -0.734375 5.359375 -0.875 5.765625 -1.15625 C 6.171875 -1.4375 6.484375 -1.835938 6.703125 -2.359375 C 6.929688 -2.890625 7.046875 -3.523438 7.046875 -4.265625 C 7.046875 -4.972656 6.9375 -5.59375 6.71875 -6.125 C 6.507812 -6.65625 6.203125 -7.066406 5.796875 -7.359375 C 5.398438 -7.660156 4.921875 -7.8125 4.359375 -7.8125 C 3.828125 -7.8125 3.359375 -7.671875 2.953125 -7.390625 C 2.546875 -7.109375 2.226562 -6.703125 2 -6.171875 C 1.78125 -5.648438 1.671875 -5.015625 1.671875 -4.265625 C 1.671875 -3.566406 1.773438 -2.953125 1.984375 -2.421875 C 2.203125 -1.890625 2.507812 -1.472656 2.90625 -1.171875 C 3.3125 -0.878906 3.796875 -0.734375 4.359375 -0.734375 Z M 4.359375 -0.734375 "/></g></g></g><g fill="#2a6c4c" fill-opacity="1"><g transform="translate(172.679175, 201.758229)"><g><path d="M 6.828125 0 L 5.734375 0 L 3.484375 -3.125 L 1.9375 -3.125 L 1.9375 0 L 1.03125 0 L 1.03125 -8.546875 L 3.65625 -8.546875 C 4.625 -8.546875 5.382812 -8.3125 5.9375 -7.84375 C 6.488281 -7.382812 6.765625 -6.710938 6.765625 -5.828125 C 6.765625 -5.117188 6.570312 -4.535156 6.1875 -4.078125 C 5.800781 -3.628906 5.25 -3.335938 4.53125 -3.203125 Z M 3.625 -7.71875 L 1.9375 -7.71875 L 1.9375 -3.921875 L 3.609375 -3.921875 C 4.328125 -3.921875 4.878906 -4.078125 5.265625 -4.390625 C 5.660156 -4.710938 5.859375 -5.191406 5.859375 -5.828125 C 5.859375 -6.453125 5.664062 -6.921875 5.28125 -7.234375 C 4.894531 -7.554688 4.34375 -7.71875 3.625 -7.71875 Z M 3.625 -7.71875 "/></g></g></g><g fill="#2a6c4c" fill-opacity="1"><g transform="translate(184.131935, 201.758229)"><g><path d="M 3.234375 0.125 C 2.742188 0.125 2.257812 0.0703125 1.78125 -0.03125 C 1.300781 -0.144531 0.867188 -0.3125 0.484375 -0.53125 L 0.59375 -1.375 C 1 -1.15625 1.429688 -0.992188 1.890625 -0.890625 C 2.359375 -0.785156 2.789062 -0.734375 3.1875 -0.734375 C 3.5625 -0.734375 3.898438 -0.78125 4.203125 -0.875 C 4.503906 -0.96875 4.75 -1.117188 4.9375 -1.328125 C 5.125 -1.535156 5.21875 -1.816406 5.21875 -2.171875 C 5.21875 -2.523438 5.132812 -2.8125 4.96875 -3.03125 C 4.800781 -3.25 4.566406 -3.429688 4.265625 -3.578125 C 3.960938 -3.734375 3.609375 -3.878906 3.203125 -4.015625 C 2.429688 -4.253906 1.820312 -4.554688 1.375 -4.921875 C 0.925781 -5.296875 0.703125 -5.789062 0.703125 -6.40625 C 0.703125 -6.90625 0.820312 -7.320312 1.0625 -7.65625 C 1.3125 -7.988281 1.644531 -8.238281 2.0625 -8.40625 C 2.488281 -8.570312 2.953125 -8.65625 3.453125 -8.65625 C 3.835938 -8.65625 4.226562 -8.609375 4.625 -8.515625 C 5.019531 -8.429688 5.40625 -8.296875 5.78125 -8.109375 L 5.640625 -7.25 C 4.898438 -7.613281 4.179688 -7.796875 3.484375 -7.796875 C 3.148438 -7.796875 2.84375 -7.75 2.5625 -7.65625 C 2.28125 -7.570312 2.054688 -7.429688 1.890625 -7.234375 C 1.722656 -7.035156 1.640625 -6.765625 1.640625 -6.421875 C 1.640625 -6.003906 1.804688 -5.675781 2.140625 -5.4375 C 2.472656 -5.207031 2.953125 -4.984375 3.578125 -4.765625 C 4.097656 -4.597656 4.550781 -4.40625 4.9375 -4.1875 C 5.332031 -3.96875 5.632812 -3.695312 5.84375 -3.375 C 6.0625 -3.0625 6.171875 -2.664062 6.171875 -2.1875 C 6.171875 -1.675781 6.035156 -1.25 5.765625 -0.90625 C 5.503906 -0.570312 5.148438 -0.316406 4.703125 -0.140625 C 4.265625 0.0351562 3.773438 0.125 3.234375 0.125 Z M 3.234375 0.125 "/></g></g></g><g fill="#3f1215" fill-opacity="1"><g transform="translate(15.317224, 217.006806)"><g><path d="M 0.5 0 L 0.5 -3.953125 L 1.328125 -3.953125 L 1.328125 0 Z M 0.5 0 "/></g></g></g><g fill="#3f1215" fill-opacity="1"><g transform="translate(18.669748, 217.006806)"><g><path d="M 4 0 L 2.9375 0 L 1.21875 -2.984375 L 1.1875 -2.984375 C 1.195312 -2.859375 1.203125 -2.734375 1.203125 -2.609375 C 1.210938 -2.484375 1.21875 -2.359375 1.21875 -2.234375 C 1.226562 -2.109375 1.238281 -1.984375 1.25 -1.859375 L 1.25 0 L 0.5 0 L 0.5 -3.953125 L 1.546875 -3.953125 L 3.265625 -0.984375 L 3.28125 -0.984375 C 3.28125 -1.109375 3.273438 -1.226562 3.265625 -1.34375 C 3.265625 -1.46875 3.257812 -1.59375 3.25 -1.71875 C 3.25 -1.84375 3.25 -1.960938 3.25 -2.078125 L 3.25 -3.953125 L 4 -3.953125 Z M 4 0 "/></g></g></g><g fill="#3f1215" fill-opacity="1"><g transform="translate(24.688193, 217.006806)"><g><path d="M 2.015625 0 L 1.1875 0 L 1.1875 -3.25 L 0.109375 -3.25 L 0.109375 -3.953125 L 3.09375 -3.953125 L 3.09375 -3.25 L 2.015625 -3.25 Z M 2.015625 0 "/></g></g></g><g fill="#3f1215" fill-opacity="1"><g transform="translate(29.412843, 217.006806)"><g><path d="M 2.765625 0 L 0.5 0 L 0.5 -3.953125 L 2.765625 -3.953125 L 2.765625 -3.265625 L 1.328125 -3.265625 L 1.328125 -2.390625 L 2.671875 -2.390625 L 2.671875 -1.703125 L 1.328125 -1.703125 L 1.328125 -0.6875 L 2.765625 -0.6875 Z M 2.765625 0 "/></g></g></g><g fill="#3f1215" fill-opacity="1"><g transform="translate(34.032152, 217.006806)"><g><path d="M 1.640625 -3.953125 C 2.003906 -3.953125 2.300781 -3.90625 2.53125 -3.8125 C 2.769531 -3.726562 2.941406 -3.597656 3.046875 -3.421875 C 3.160156 -3.253906 3.21875 -3.035156 3.21875 -2.765625 C 3.21875 -2.585938 3.179688 -2.429688 3.109375 -2.296875 C 3.046875 -2.160156 2.957031 -2.046875 2.84375 -1.953125 C 2.738281 -1.859375 2.617188 -1.78125 2.484375 -1.71875 L 3.65625 0 L 2.71875 0 L 1.78125 -1.515625 L 1.328125 -1.515625 L 1.328125 0 L 0.5 0 L 0.5 -3.953125 Z M 1.59375 -3.265625 L 1.328125 -3.265625 L 1.328125 -2.203125 L 1.609375 -2.203125 C 1.878906 -2.203125 2.070312 -2.242188 2.1875 -2.328125 C 2.3125 -2.421875 2.375 -2.5625 2.375 -2.75 C 2.375 -2.9375 2.3125 -3.066406 2.1875 -3.140625 C 2.0625 -3.222656 1.863281 -3.265625 1.59375 -3.265625 Z M 1.59375 -3.265625 "/></g></g></g><g fill="#3f1215" fill-opacity="1"><g transform="translate(39.205174, 217.006806)"><g><path d="M 4 0 L 2.9375 0 L 1.21875 -2.984375 L 1.1875 -2.984375 C 1.195312 -2.859375 1.203125 -2.734375 1.203125 -2.609375 C 1.210938 -2.484375 1.21875 -2.359375 1.21875 -2.234375 C 1.226562 -2.109375 1.238281 -1.984375 1.25 -1.859375 L 1.25 0 L 0.5 0 L 0.5 -3.953125 L 1.546875 -3.953125 L 3.265625 -0.984375 L 3.28125 -0.984375 C 3.28125 -1.109375 3.273438 -1.226562 3.265625 -1.34375 C 3.265625 -1.46875 3.257812 -1.59375 3.25 -1.71875 C 3.25 -1.84375 3.25 -1.960938 3.25 -2.078125 L 3.25 -3.953125 L 4 -3.953125 Z M 4 0 "/></g></g></g><g fill="#3f1215" fill-opacity="1"><g transform="translate(45.22362, 217.006806)"><g><path d="M 2.921875 0 L 2.625 -0.9375 L 1.1875 -0.9375 L 0.90625 0 L 0 0 L 1.390625 -3.96875 L 2.421875 -3.96875 L 3.8125 0 Z M 2.421875 -1.640625 L 2.140625 -2.5625 C 2.117188 -2.625 2.09375 -2.703125 2.0625 -2.796875 C 2.039062 -2.890625 2.015625 -2.984375 1.984375 -3.078125 C 1.953125 -3.179688 1.925781 -3.273438 1.90625 -3.359375 C 1.882812 -3.273438 1.859375 -3.179688 1.828125 -3.078125 C 1.796875 -2.972656 1.765625 -2.867188 1.734375 -2.765625 C 1.710938 -2.671875 1.695312 -2.601562 1.6875 -2.5625 L 1.40625 -1.640625 Z M 2.421875 -1.640625 "/></g></g></g><g fill="#3f1215" fill-opacity="1"><g transform="translate(50.561406, 217.006806)"><g><path d="M 2.015625 0 L 1.1875 0 L 1.1875 -3.25 L 0.109375 -3.25 L 0.109375 -3.953125 L 3.09375 -3.953125 L 3.09375 -3.25 L 2.015625 -3.25 Z M 2.015625 0 "/></g></g></g><g fill="#3f1215" fill-opacity="1"><g transform="translate(55.286057, 217.006806)"><g><path d="M 0.5 0 L 0.5 -3.953125 L 1.328125 -3.953125 L 1.328125 0 Z M 0.5 0 "/></g></g></g><g fill="#3f1215" fill-opacity="1"><g transform="translate(58.638583, 217.006806)"><g><path d="M 4.078125 -1.984375 C 4.078125 -1.671875 4.039062 -1.390625 3.96875 -1.140625 C 3.894531 -0.898438 3.78125 -0.6875 3.625 -0.5 C 3.46875 -0.320312 3.269531 -0.1875 3.03125 -0.09375 C 2.800781 0 2.523438 0.046875 2.203125 0.046875 C 1.878906 0.046875 1.597656 0 1.359375 -0.09375 C 1.128906 -0.1875 0.9375 -0.320312 0.78125 -0.5 C 0.625 -0.6875 0.507812 -0.90625 0.4375 -1.15625 C 0.363281 -1.40625 0.328125 -1.679688 0.328125 -1.984375 C 0.328125 -2.390625 0.390625 -2.742188 0.515625 -3.046875 C 0.648438 -3.359375 0.859375 -3.597656 1.140625 -3.765625 C 1.421875 -3.929688 1.773438 -4.015625 2.203125 -4.015625 C 2.628906 -4.015625 2.976562 -3.929688 3.25 -3.765625 C 3.53125 -3.597656 3.738281 -3.359375 3.875 -3.046875 C 4.007812 -2.742188 4.078125 -2.390625 4.078125 -1.984375 Z M 1.203125 -1.984375 C 1.203125 -1.703125 1.234375 -1.460938 1.296875 -1.265625 C 1.367188 -1.066406 1.476562 -0.910156 1.625 -0.796875 C 1.769531 -0.691406 1.960938 -0.640625 2.203125 -0.640625 C 2.441406 -0.640625 2.632812 -0.691406 2.78125 -0.796875 C 2.925781 -0.910156 3.03125 -1.066406 3.09375 -1.265625 C 3.164062 -1.460938 3.203125 -1.703125 3.203125 -1.984375 C 3.203125 -2.390625 3.125 -2.710938 2.96875 -2.953125 C 2.8125 -3.191406 2.554688 -3.3125 2.203125 -3.3125 C 1.972656 -3.3125 1.78125 -3.257812 1.625 -3.15625 C 1.476562 -3.050781 1.367188 -2.894531 1.296875 -2.6875 C 1.234375 -2.488281 1.203125 -2.253906 1.203125 -1.984375 Z M 1.203125 -1.984375 "/></g></g></g><g fill="#3f1215" fill-opacity="1"><g transform="translate(64.562493, 217.006806)"><g><path d="M 4 0 L 2.9375 0 L 1.21875 -2.984375 L 1.1875 -2.984375 C 1.195312 -2.859375 1.203125 -2.734375 1.203125 -2.609375 C 1.210938 -2.484375 1.21875 -2.359375 1.21875 -2.234375 C 1.226562 -2.109375 1.238281 -1.984375 1.25 -1.859375 L 1.25 0 L 0.5 0 L 0.5 -3.953125 L 1.546875 -3.953125 L 3.265625 -0.984375 L 3.28125 -0.984375 C 3.28125 -1.109375 3.273438 -1.226562 3.265625 -1.34375 C 3.265625 -1.46875 3.257812 -1.59375 3.25 -1.71875 C 3.25 -1.84375 3.25 -1.960938 3.25 -2.078125 L 3.25 -3.953125 L 4 -3.953125 Z M 4 0 "/></g></g></g><g fill="#3f1215" fill-opacity="1"><g transform="translate(70.58094, 217.006806)"><g><path d="M 2.921875 0 L 2.625 -0.9375 L 1.1875 -0.9375 L 0.90625 0 L 0 0 L 1.390625 -3.96875 L 2.421875 -3.96875 L 3.8125 0 Z M 2.421875 -1.640625 L 2.140625 -2.5625 C 2.117188 -2.625 2.09375 -2.703125 2.0625 -2.796875 C 2.039062 -2.890625 2.015625 -2.984375 1.984375 -3.078125 C 1.953125 -3.179688 1.925781 -3.273438 1.90625 -3.359375 C 1.882812 -3.273438 1.859375 -3.179688 1.828125 -3.078125 C 1.796875 -2.972656 1.765625 -2.867188 1.734375 -2.765625 C 1.710938 -2.671875 1.695312 -2.601562 1.6875 -2.5625 L 1.40625 -1.640625 Z M 2.421875 -1.640625 "/></g></g></g><g fill="#3f1215" fill-opacity="1"><g transform="translate(75.918726, 217.006806)"><g><path d="M 0.5 0 L 0.5 -3.953125 L 1.328125 -3.953125 L 1.328125 -0.6875 L 2.9375 -0.6875 L 2.9375 0 Z M 0.5 0 "/></g></g></g><g fill="#3f1215" fill-opacity="1"><g transform="translate(80.565047, 217.006806)"><g/></g></g><g fill="#3f1215" fill-opacity="1"><g transform="translate(83.523221, 217.006806)"><g><path d="M 2.015625 0 L 1.1875 0 L 1.1875 -3.25 L 0.109375 -3.25 L 0.109375 -3.953125 L 3.09375 -3.953125 L 3.09375 -3.25 L 2.015625 -3.25 Z M 2.015625 0 "/></g></g></g><g fill="#3f1215" fill-opacity="1"><g transform="translate(88.247872, 217.006806)"><g><path d="M 2.921875 0 L 2.625 -0.9375 L 1.1875 -0.9375 L 0.90625 0 L 0 0 L 1.390625 -3.96875 L 2.421875 -3.96875 L 3.8125 0 Z M 2.421875 -1.640625 L 2.140625 -2.5625 C 2.117188 -2.625 2.09375 -2.703125 2.0625 -2.796875 C 2.039062 -2.890625 2.015625 -2.984375 1.984375 -3.078125 C 1.953125 -3.179688 1.925781 -3.273438 1.90625 -3.359375 C 1.882812 -3.273438 1.859375 -3.179688 1.828125 -3.078125 C 1.796875 -2.972656 1.765625 -2.867188 1.734375 -2.765625 C 1.710938 -2.671875 1.695312 -2.601562 1.6875 -2.5625 L 1.40625 -1.640625 Z M 2.421875 -1.640625 "/></g></g></g><g fill="#3f1215" fill-opacity="1"><g transform="translate(93.585658, 217.006806)"><g><path d="M 3.6875 0 L 2.734375 0 L 1.8125 -1.5 L 0.890625 0 L 0 0 L 1.3125 -2.03125 L 0.078125 -3.953125 L 1 -3.953125 L 1.859375 -2.53125 L 2.6875 -3.953125 L 3.59375 -3.953125 L 2.359375 -1.984375 Z M 3.6875 0 "/></g></g></g><g fill="#3f1215" fill-opacity="1"><g transform="translate(98.796495, 217.006806)"><g/></g></g><g fill="#3f1215" fill-opacity="1"><g transform="translate(101.75467, 217.006806)"><g><path d="M 1.234375 -4.1875 L 1.828125 -4.1875 L 1.828125 1.25 L 1.234375 1.25 Z M 1.234375 -4.1875 "/></g></g></g><g fill="#3f1215" fill-opacity="1"><g transform="translate(106.322661, 217.006806)"><g/></g></g><g fill="#3f1215" fill-opacity="1"><g transform="translate(109.280836, 217.006806)"><g><path d="M 2.015625 0 L 1.1875 0 L 1.1875 -3.25 L 0.109375 -3.25 L 0.109375 -3.953125 L 3.09375 -3.953125 L 3.09375 -3.25 L 2.015625 -3.25 Z M 2.015625 0 "/></g></g></g><g fill="#3f1215" fill-opacity="1"><g transform="translate(114.005487, 217.006806)"><g><path d="M 1.640625 -3.953125 C 2.003906 -3.953125 2.300781 -3.90625 2.53125 -3.8125 C 2.769531 -3.726562 2.941406 -3.597656 3.046875 -3.421875 C 3.160156 -3.253906 3.21875 -3.035156 3.21875 -2.765625 C 3.21875 -2.585938 3.179688 -2.429688 3.109375 -2.296875 C 3.046875 -2.160156 2.957031 -2.046875 2.84375 -1.953125 C 2.738281 -1.859375 2.617188 -1.78125 2.484375 -1.71875 L 3.65625 0 L 2.71875 0 L 1.78125 -1.515625 L 1.328125 -1.515625 L 1.328125 0 L 0.5 0 L 0.5 -3.953125 Z M 1.59375 -3.265625 L 1.328125 -3.265625 L 1.328125 -2.203125 L 1.609375 -2.203125 C 1.878906 -2.203125 2.070312 -2.242188 2.1875 -2.328125 C 2.3125 -2.421875 2.375 -2.5625 2.375 -2.75 C 2.375 -2.9375 2.3125 -3.066406 2.1875 -3.140625 C 2.0625 -3.222656 1.863281 -3.265625 1.59375 -3.265625 Z M 1.59375 -3.265625 "/></g></g></g><g fill="#3f1215" fill-opacity="1"><g transform="translate(119.178509, 217.006806)"><g><path d="M 2.921875 0 L 2.625 -0.9375 L 1.1875 -0.9375 L 0.90625 0 L 0 0 L 1.390625 -3.96875 L 2.421875 -3.96875 L 3.8125 0 Z M 2.421875 -1.640625 L 2.140625 -2.5625 C 2.117188 -2.625 2.09375 -2.703125 2.0625 -2.796875 C 2.039062 -2.890625 2.015625 -2.984375 1.984375 -3.078125 C 1.953125 -3.179688 1.925781 -3.273438 1.90625 -3.359375 C 1.882812 -3.273438 1.859375 -3.179688 1.828125 -3.078125 C 1.796875 -2.972656 1.765625 -2.867188 1.734375 -2.765625 C 1.710938 -2.671875 1.695312 -2.601562 1.6875 -2.5625 L 1.40625 -1.640625 Z M 2.421875 -1.640625 "/></g></g></g><g fill="#3f1215" fill-opacity="1"><g transform="translate(124.516295, 217.006806)"><g><path d="M 4 0 L 2.9375 0 L 1.21875 -2.984375 L 1.1875 -2.984375 C 1.195312 -2.859375 1.203125 -2.734375 1.203125 -2.609375 C 1.210938 -2.484375 1.21875 -2.359375 1.21875 -2.234375 C 1.226562 -2.109375 1.238281 -1.984375 1.25 -1.859375 L 1.25 0 L 0.5 0 L 0.5 -3.953125 L 1.546875 -3.953125 L 3.265625 -0.984375 L 3.28125 -0.984375 C 3.28125 -1.109375 3.273438 -1.226562 3.265625 -1.34375 C 3.265625 -1.46875 3.257812 -1.59375 3.25 -1.71875 C 3.25 -1.84375 3.25 -1.960938 3.25 -2.078125 L 3.25 -3.953125 L 4 -3.953125 Z M 4 0 "/></g></g></g><g fill="#3f1215" fill-opacity="1"><g transform="translate(130.534742, 217.006806)"><g><path d="M 2.828125 -1.09375 C 2.828125 -0.863281 2.769531 -0.660156 2.65625 -0.484375 C 2.539062 -0.316406 2.375 -0.1875 2.15625 -0.09375 C 1.945312 0 1.6875 0.046875 1.375 0.046875 C 1.238281 0.046875 1.101562 0.0351562 0.96875 0.015625 C 0.84375 0.00390625 0.71875 -0.015625 0.59375 -0.046875 C 0.476562 -0.0859375 0.363281 -0.132812 0.25 -0.1875 L 0.25 -0.96875 C 0.4375 -0.882812 0.628906 -0.804688 0.828125 -0.734375 C 1.035156 -0.671875 1.238281 -0.640625 1.4375 -0.640625 C 1.570312 -0.640625 1.679688 -0.65625 1.765625 -0.6875 C 1.847656 -0.726562 1.90625 -0.78125 1.9375 -0.84375 C 1.976562 -0.90625 2 -0.976562 2 -1.0625 C 2 -1.15625 1.96875 -1.238281 1.90625 -1.3125 C 1.84375 -1.382812 1.75 -1.445312 1.625 -1.5 C 1.507812 -1.5625 1.378906 -1.628906 1.234375 -1.703125 C 1.148438 -1.742188 1.050781 -1.796875 0.9375 -1.859375 C 0.832031 -1.921875 0.726562 -1.992188 0.625 -2.078125 C 0.53125 -2.171875 0.453125 -2.28125 0.390625 -2.40625 C 0.328125 -2.539062 0.296875 -2.695312 0.296875 -2.875 C 0.296875 -3.113281 0.347656 -3.316406 0.453125 -3.484375 C 0.566406 -3.648438 0.722656 -3.773438 0.921875 -3.859375 C 1.117188 -3.953125 1.359375 -4 1.640625 -4 C 1.835938 -4 2.03125 -3.972656 2.21875 -3.921875 C 2.40625 -3.878906 2.601562 -3.816406 2.8125 -3.734375 L 2.53125 -3.078125 C 2.351562 -3.148438 2.191406 -3.207031 2.046875 -3.25 C 1.898438 -3.289062 1.753906 -3.3125 1.609375 -3.3125 C 1.503906 -3.3125 1.414062 -3.289062 1.34375 -3.25 C 1.269531 -3.21875 1.210938 -3.171875 1.171875 -3.109375 C 1.140625 -3.054688 1.125 -2.988281 1.125 -2.90625 C 1.125 -2.8125 1.148438 -2.734375 1.203125 -2.671875 C 1.253906 -2.609375 1.332031 -2.546875 1.4375 -2.484375 C 1.550781 -2.421875 1.691406 -2.351562 1.859375 -2.28125 C 2.066406 -2.1875 2.238281 -2.085938 2.375 -1.984375 C 2.519531 -1.878906 2.628906 -1.753906 2.703125 -1.609375 C 2.785156 -1.472656 2.828125 -1.300781 2.828125 -1.09375 Z M 2.828125 -1.09375 "/></g></g></g><g fill="#3f1215" fill-opacity="1"><g transform="translate(135.102733, 217.006806)"><g><path d="M 1.328125 0 L 0.5 0 L 0.5 -3.953125 L 2.765625 -3.953125 L 2.765625 -3.265625 L 1.328125 -3.265625 L 1.328125 -2.25 L 2.65625 -2.25 L 2.65625 -1.5625 L 1.328125 -1.5625 Z M 1.328125 0 "/></g></g></g><g fill="#3f1215" fill-opacity="1"><g transform="translate(139.659913, 217.006806)"><g><path d="M 2.765625 0 L 0.5 0 L 0.5 -3.953125 L 2.765625 -3.953125 L 2.765625 -3.265625 L 1.328125 -3.265625 L 1.328125 -2.390625 L 2.671875 -2.390625 L 2.671875 -1.703125 L 1.328125 -1.703125 L 1.328125 -0.6875 L 2.765625 -0.6875 Z M 2.765625 0 "/></g></g></g><g fill="#3f1215" fill-opacity="1"><g transform="translate(144.279217, 217.006806)"><g><path d="M 1.640625 -3.953125 C 2.003906 -3.953125 2.300781 -3.90625 2.53125 -3.8125 C 2.769531 -3.726562 2.941406 -3.597656 3.046875 -3.421875 C 3.160156 -3.253906 3.21875 -3.035156 3.21875 -2.765625 C 3.21875 -2.585938 3.179688 -2.429688 3.109375 -2.296875 C 3.046875 -2.160156 2.957031 -2.046875 2.84375 -1.953125 C 2.738281 -1.859375 2.617188 -1.78125 2.484375 -1.71875 L 3.65625 0 L 2.71875 0 L 1.78125 -1.515625 L 1.328125 -1.515625 L 1.328125 0 L 0.5 0 L 0.5 -3.953125 Z M 1.59375 -3.265625 L 1.328125 -3.265625 L 1.328125 -2.203125 L 1.609375 -2.203125 C 1.878906 -2.203125 2.070312 -2.242188 2.1875 -2.328125 C 2.3125 -2.421875 2.375 -2.5625 2.375 -2.75 C 2.375 -2.9375 2.3125 -3.066406 2.1875 -3.140625 C 2.0625 -3.222656 1.863281 -3.265625 1.59375 -3.265625 Z M 1.59375 -3.265625 "/></g></g></g><g fill="#3f1215" fill-opacity="1"><g transform="translate(149.452233, 217.006806)"><g/></g></g><g fill="#3f1215" fill-opacity="1"><g transform="translate(152.4104, 217.006806)"><g><path d="M 1.765625 -3.953125 C 2.265625 -3.953125 2.628906 -3.84375 2.859375 -3.625 C 3.097656 -3.40625 3.21875 -3.101562 3.21875 -2.71875 C 3.21875 -2.539062 3.191406 -2.375 3.140625 -2.21875 C 3.085938 -2.0625 3.003906 -1.921875 2.890625 -1.796875 C 2.773438 -1.679688 2.617188 -1.585938 2.421875 -1.515625 C 2.222656 -1.441406 1.976562 -1.40625 1.6875 -1.40625 L 1.328125 -1.40625 L 1.328125 0 L 0.5 0 L 0.5 -3.953125 Z M 1.71875 -3.265625 L 1.328125 -3.265625 L 1.328125 -2.09375 L 1.609375 -2.09375 C 1.765625 -2.09375 1.898438 -2.113281 2.015625 -2.15625 C 2.128906 -2.195312 2.21875 -2.257812 2.28125 -2.34375 C 2.34375 -2.4375 2.375 -2.550781 2.375 -2.6875 C 2.375 -2.882812 2.320312 -3.03125 2.21875 -3.125 C 2.113281 -3.21875 1.945312 -3.265625 1.71875 -3.265625 Z M 1.71875 -3.265625 "/></g></g></g><g fill="#3f1215" fill-opacity="1"><g transform="translate(157.405147, 217.006806)"><g><path d="M 1.640625 -3.953125 C 2.003906 -3.953125 2.300781 -3.90625 2.53125 -3.8125 C 2.769531 -3.726562 2.941406 -3.597656 3.046875 -3.421875 C 3.160156 -3.253906 3.21875 -3.035156 3.21875 -2.765625 C 3.21875 -2.585938 3.179688 -2.429688 3.109375 -2.296875 C 3.046875 -2.160156 2.957031 -2.046875 2.84375 -1.953125 C 2.738281 -1.859375 2.617188 -1.78125 2.484375 -1.71875 L 3.65625 0 L 2.71875 0 L 1.78125 -1.515625 L 1.328125 -1.515625 L 1.328125 0 L 0.5 0 L 0.5 -3.953125 Z M 1.59375 -3.265625 L 1.328125 -3.265625 L 1.328125 -2.203125 L 1.609375 -2.203125 C 1.878906 -2.203125 2.070312 -2.242188 2.1875 -2.328125 C 2.3125 -2.421875 2.375 -2.5625 2.375 -2.75 C 2.375 -2.9375 2.3125 -3.066406 2.1875 -3.140625 C 2.0625 -3.222656 1.863281 -3.265625 1.59375 -3.265625 Z M 1.59375 -3.265625 "/></g></g></g><g fill="#3f1215" fill-opacity="1"><g transform="translate(162.578163, 217.006806)"><g><path d="M 0.5 0 L 0.5 -3.953125 L 1.328125 -3.953125 L 1.328125 0 Z M 0.5 0 "/></g></g></g><g fill="#3f1215" fill-opacity="1"><g transform="translate(165.930682, 217.006806)"><g><path d="M 2.171875 -3.3125 C 2.015625 -3.3125 1.875 -3.28125 1.75 -3.21875 C 1.625 -3.15625 1.519531 -3.0625 1.4375 -2.9375 C 1.351562 -2.820312 1.289062 -2.679688 1.25 -2.515625 C 1.207031 -2.359375 1.1875 -2.175781 1.1875 -1.96875 C 1.1875 -1.6875 1.21875 -1.445312 1.28125 -1.25 C 1.351562 -1.050781 1.460938 -0.898438 1.609375 -0.796875 C 1.753906 -0.691406 1.941406 -0.640625 2.171875 -0.640625 C 2.335938 -0.640625 2.5 -0.65625 2.65625 -0.6875 C 2.8125 -0.726562 2.988281 -0.78125 3.1875 -0.84375 L 3.1875 -0.15625 C 3.007812 -0.0820312 2.832031 -0.03125 2.65625 0 C 2.488281 0.03125 2.300781 0.046875 2.09375 0.046875 C 1.6875 0.046875 1.351562 -0.0351562 1.09375 -0.203125 C 0.832031 -0.367188 0.640625 -0.601562 0.515625 -0.90625 C 0.390625 -1.207031 0.328125 -1.5625 0.328125 -1.96875 C 0.328125 -2.269531 0.363281 -2.539062 0.4375 -2.78125 C 0.519531 -3.03125 0.640625 -3.242188 0.796875 -3.421875 C 0.953125 -3.609375 1.144531 -3.75 1.375 -3.84375 C 1.601562 -3.945312 1.867188 -4 2.171875 -4 C 2.367188 -4 2.566406 -3.972656 2.765625 -3.921875 C 2.960938 -3.878906 3.148438 -3.816406 3.328125 -3.734375 L 3.0625 -3.046875 C 2.914062 -3.117188 2.765625 -3.179688 2.609375 -3.234375 C 2.460938 -3.285156 2.316406 -3.3125 2.171875 -3.3125 Z M 2.171875 -3.3125 "/></g></g></g><g fill="#3f1215" fill-opacity="1"><g transform="translate(170.976749, 217.006806)"><g><path d="M 0.5 0 L 0.5 -3.953125 L 1.328125 -3.953125 L 1.328125 0 Z M 0.5 0 "/></g></g></g><g fill="#3f1215" fill-opacity="1"><g transform="translate(174.329267, 217.006806)"><g><path d="M 4 0 L 2.9375 0 L 1.21875 -2.984375 L 1.1875 -2.984375 C 1.195312 -2.859375 1.203125 -2.734375 1.203125 -2.609375 C 1.210938 -2.484375 1.21875 -2.359375 1.21875 -2.234375 C 1.226562 -2.109375 1.238281 -1.984375 1.25 -1.859375 L 1.25 0 L 0.5 0 L 0.5 -3.953125 L 1.546875 -3.953125 L 3.265625 -0.984375 L 3.28125 -0.984375 C 3.28125 -1.109375 3.273438 -1.226562 3.265625 -1.34375 C 3.265625 -1.46875 3.257812 -1.59375 3.25 -1.71875 C 3.25 -1.84375 3.25 -1.960938 3.25 -2.078125 L 3.25 -3.953125 L 4 -3.953125 Z M 4 0 "/></g></g></g><g fill="#3f1215" fill-opacity="1"><g transform="translate(180.347707, 217.006806)"><g><path d="M 2 -2.21875 L 3.5625 -2.21875 L 3.5625 -0.171875 C 3.351562 -0.0976562 3.132812 -0.0390625 2.90625 0 C 2.6875 0.03125 2.4375 0.046875 2.15625 0.046875 C 1.757812 0.046875 1.425781 -0.0234375 1.15625 -0.171875 C 0.882812 -0.328125 0.675781 -0.554688 0.53125 -0.859375 C 0.394531 -1.160156 0.328125 -1.535156 0.328125 -1.984375 C 0.328125 -2.390625 0.40625 -2.742188 0.5625 -3.046875 C 0.71875 -3.359375 0.945312 -3.59375 1.25 -3.75 C 1.5625 -3.914062 1.941406 -4 2.390625 -4 C 2.597656 -4 2.800781 -3.976562 3 -3.9375 C 3.207031 -3.894531 3.394531 -3.835938 3.5625 -3.765625 L 3.28125 -3.09375 C 3.15625 -3.15625 3.015625 -3.207031 2.859375 -3.25 C 2.710938 -3.289062 2.550781 -3.3125 2.375 -3.3125 C 2.132812 -3.3125 1.925781 -3.253906 1.75 -3.140625 C 1.570312 -3.023438 1.429688 -2.867188 1.328125 -2.671875 C 1.234375 -2.472656 1.1875 -2.238281 1.1875 -1.96875 C 1.1875 -1.707031 1.21875 -1.476562 1.28125 -1.28125 C 1.351562 -1.082031 1.460938 -0.925781 1.609375 -0.8125 C 1.765625 -0.695312 1.96875 -0.640625 2.21875 -0.640625 C 2.332031 -0.640625 2.429688 -0.644531 2.515625 -0.65625 C 2.597656 -0.664062 2.675781 -0.679688 2.75 -0.703125 L 2.75 -1.515625 L 2 -1.515625 Z M 2 -2.21875 "/></g></g></g><g fill="#3f1215" fill-opacity="1"><g transform="translate(185.874558, 217.006806)"><g/></g></g><g fill="#3f1215" fill-opacity="1"><g transform="translate(188.832726, 217.006806)"><g><path d="M 1.234375 -4.1875 L 1.828125 -4.1875 L 1.828125 1.25 L 1.234375 1.25 Z M 1.234375 -4.1875 "/></g></g></g><g fill="#3f1215" fill-opacity="1"><g transform="translate(193.40071, 217.006806)"><g/></g></g><g fill="#3f1215" fill-opacity="1"><g transform="translate(196.358877, 217.006806)"><g><path d="M 2.765625 0 L 0.5 0 L 0.5 -3.953125 L 2.765625 -3.953125 L 2.765625 -3.265625 L 1.328125 -3.265625 L 1.328125 -2.390625 L 2.671875 -2.390625 L 2.671875 -1.703125 L 1.328125 -1.703125 L 1.328125 -0.6875 L 2.765625 -0.6875 Z M 2.765625 0 "/></g></g></g><g fill="#3f1215" fill-opacity="1"><g transform="translate(200.978181, 217.006806)"><g><path d="M 2.828125 -1.09375 C 2.828125 -0.863281 2.769531 -0.660156 2.65625 -0.484375 C 2.539062 -0.316406 2.375 -0.1875 2.15625 -0.09375 C 1.945312 0 1.6875 0.046875 1.375 0.046875 C 1.238281 0.046875 1.101562 0.0351562 0.96875 0.015625 C 0.84375 0.00390625 0.71875 -0.015625 0.59375 -0.046875 C 0.476562 -0.0859375 0.363281 -0.132812 0.25 -0.1875 L 0.25 -0.96875 C 0.4375 -0.882812 0.628906 -0.804688 0.828125 -0.734375 C 1.035156 -0.671875 1.238281 -0.640625 1.4375 -0.640625 C 1.570312 -0.640625 1.679688 -0.65625 1.765625 -0.6875 C 1.847656 -0.726562 1.90625 -0.78125 1.9375 -0.84375 C 1.976562 -0.90625 2 -0.976562 2 -1.0625 C 2 -1.15625 1.96875 -1.238281 1.90625 -1.3125 C 1.84375 -1.382812 1.75 -1.445312 1.625 -1.5 C 1.507812 -1.5625 1.378906 -1.628906 1.234375 -1.703125 C 1.148438 -1.742188 1.050781 -1.796875 0.9375 -1.859375 C 0.832031 -1.921875 0.726562 -1.992188 0.625 -2.078125 C 0.53125 -2.171875 0.453125 -2.28125 0.390625 -2.40625 C 0.328125 -2.539062 0.296875 -2.695312 0.296875 -2.875 C 0.296875 -3.113281 0.347656 -3.316406 0.453125 -3.484375 C 0.566406 -3.648438 0.722656 -3.773438 0.921875 -3.859375 C 1.117188 -3.953125 1.359375 -4 1.640625 -4 C 1.835938 -4 2.03125 -3.972656 2.21875 -3.921875 C 2.40625 -3.878906 2.601562 -3.816406 2.8125 -3.734375 L 2.53125 -3.078125 C 2.351562 -3.148438 2.191406 -3.207031 2.046875 -3.25 C 1.898438 -3.289062 1.753906 -3.3125 1.609375 -3.3125 C 1.503906 -3.3125 1.414062 -3.289062 1.34375 -3.25 C 1.269531 -3.21875 1.210938 -3.171875 1.171875 -3.109375 C 1.140625 -3.054688 1.125 -2.988281 1.125 -2.90625 C 1.125 -2.8125 1.148438 -2.734375 1.203125 -2.671875 C 1.253906 -2.609375 1.332031 -2.546875 1.4375 -2.484375 C 1.550781 -2.421875 1.691406 -2.351562 1.859375 -2.28125 C 2.066406 -2.1875 2.238281 -2.085938 2.375 -1.984375 C 2.519531 -1.878906 2.628906 -1.753906 2.703125 -1.609375 C 2.785156 -1.472656 2.828125 -1.300781 2.828125 -1.09375 Z M 2.828125 -1.09375 "/></g></g></g><g fill="#3f1215" fill-opacity="1"><g transform="translate(205.546165, 217.006806)"><g><path d="M 2 -2.21875 L 3.5625 -2.21875 L 3.5625 -0.171875 C 3.351562 -0.0976562 3.132812 -0.0390625 2.90625 0 C 2.6875 0.03125 2.4375 0.046875 2.15625 0.046875 C 1.757812 0.046875 1.425781 -0.0234375 1.15625 -0.171875 C 0.882812 -0.328125 0.675781 -0.554688 0.53125 -0.859375 C 0.394531 -1.160156 0.328125 -1.535156 0.328125 -1.984375 C 0.328125 -2.390625 0.40625 -2.742188 0.5625 -3.046875 C 0.71875 -3.359375 0.945312 -3.59375 1.25 -3.75 C 1.5625 -3.914062 1.941406 -4 2.390625 -4 C 2.597656 -4 2.800781 -3.976562 3 -3.9375 C 3.207031 -3.894531 3.394531 -3.835938 3.5625 -3.765625 L 3.28125 -3.09375 C 3.15625 -3.15625 3.015625 -3.207031 2.859375 -3.25 C 2.710938 -3.289062 2.550781 -3.3125 2.375 -3.3125 C 2.132812 -3.3125 1.925781 -3.253906 1.75 -3.140625 C 1.570312 -3.023438 1.429688 -2.867188 1.328125 -2.671875 C 1.234375 -2.472656 1.1875 -2.238281 1.1875 -1.96875 C 1.1875 -1.707031 1.21875 -1.476562 1.28125 -1.28125 C 1.351562 -1.082031 1.460938 -0.925781 1.609375 -0.8125 C 1.765625 -0.695312 1.96875 -0.640625 2.21875 -0.640625 C 2.332031 -0.640625 2.429688 -0.644531 2.515625 -0.65625 C 2.597656 -0.664062 2.675781 -0.679688 2.75 -0.703125 L 2.75 -1.515625 L 2 -1.515625 Z M 2 -2.21875 "/></g></g></g></svg>