<svg xmlns="http://www.w3.org/2000/svg" xmlns:xlink="http://www.w3.org/1999/xlink" width="300" zoomAndPan="magnify" viewBox="0 0 224.87999 225" height="300" preserveAspectRatio="xMidYMid meet" version="1.0"><defs><g/><clipPath id="0ed21dd9ab"><path d="M 67.464844 43.144531 L 157.414062 43.144531 L 157.414062 107.609375 L 67.464844 107.609375 Z M 67.464844 43.144531 " clip-rule="nonzero"/></clipPath></defs><g clip-path="url(#0ed21dd9ab)"><path fill="#00bf63" d="M 112.457031 55.714844 C 112.457031 55.714844 109.265625 60.75 108.792969 70.113281 C 108.347656 79.449219 112.457031 84.195312 112.457031 84.195312 C 112.457031 84.195312 116.5625 79.449219 116.089844 70.113281 C 115.621094 60.75 112.457031 55.714844 112.457031 55.714844 Z M 118.445312 89.648438 C 122.160156 76.605469 133.019531 70.949219 146.515625 71.964844 C 146.515625 71.964844 144.03125 87.324219 127.027344 87.769531 C 127.027344 87.769531 135.007812 83.230469 136.707031 78.25 C 127.867188 79.554688 122.527344 84.796875 118.449219 89.648438 Z M 112.457031 88.785156 C 112.457031 88.785156 102.800781 79.136719 104.503906 63.359375 C 106.175781 47.582031 112.457031 43.144531 112.457031 43.144531 C 112.457031 43.144531 118.707031 47.582031 120.382812 63.359375 C 122.082031 79.136719 112.457031 88.785156 112.457031 88.785156 Z M 106.4375 89.648438 C 102.722656 76.605469 91.867188 70.949219 78.367188 71.964844 C 78.367188 71.964844 80.851562 87.324219 97.859375 87.769531 C 97.859375 87.769531 89.878906 83.230469 88.175781 78.25 C 97.019531 79.554688 102.355469 84.796875 106.4375 89.648438 Z M 78.757812 101.304688 C 79.910156 100 81.296875 99.011719 82.683594 98.28125 C 93.355469 92.671875 105.363281 99.425781 112.453125 107.902344 C 119.515625 99.425781 131.523438 92.671875 142.199219 98.28125 C 143.585938 99.011719 144.972656 100 146.125 101.304688 C 138.929688 103.550781 132.964844 102.453125 127.261719 99.480469 C 126.003906 99.921875 124.410156 100.707031 122.8125 101.984375 C 129.25 105.660156 133.933594 107.667969 143.875 106.519531 C 151.617188 105.609375 157.398438 102.21875 157.398438 102.21875 C 143.402344 86.308594 129.433594 90.195312 120.878906 95.386719 C 118.523438 93.925781 114.441406 92.386719 112.453125 92.671875 C 110.441406 92.386719 106.386719 93.925781 104.03125 95.386719 C 95.449219 90.195312 81.480469 86.308594 67.484375 102.21875 C 67.484375 102.21875 73.265625 105.609375 81.007812 106.519531 C 90.949219 107.667969 95.632812 105.660156 102.066406 101.984375 C 100.472656 100.707031 98.875 99.921875 97.621094 99.480469 C 91.945312 102.453125 85.953125 103.546875 78.757812 101.304688 Z M 116.613281 98.382812 C 113.972656 100.496094 112.453125 102.21875 112.453125 102.21875 C 112.453125 102.21875 110.910156 100.496094 108.292969 98.382812 C 110.441406 97.160156 112.453125 96.6875 112.453125 96.6875 C 112.453125 96.6875 114.441406 97.160156 116.613281 98.382812 Z M 116.613281 98.382812 " fill-opacity="1" fill-rule="evenodd"/></g><g fill="#2a6c4c" fill-opacity="1"><g transform="translate(26.252062, 131.761328)"><g><path d="M 7.3125 0 L 6.40625 0 L 5.6875 -1.96875 L 1.875 -1.96875 L 1.140625 0 L 0.25 0 L 3.3125 -8.1875 L 4.25 -8.1875 Z M 3.78125 -7.078125 L 2.171875 -2.75 L 5.390625 -2.75 Z M 3.78125 -7.078125 "/></g></g></g><g fill="#2a6c4c" fill-opacity="1"><g transform="translate(37.799619, 131.761328)"><g><path d="M 4.109375 0 L 3.21875 0 L 0.25 -8.1875 L 1.171875 -8.1875 L 3.65625 -1.203125 L 3.671875 -1.203125 L 6.15625 -8.1875 L 7.078125 -8.1875 Z M 4.109375 0 "/></g></g></g><g fill="#2a6c4c" fill-opacity="1"><g transform="translate(49.101755, 131.761328)"><g><path d="M 1.859375 -3.921875 L 1.859375 -0.78125 L 6.203125 -0.78125 L 6.203125 0 L 1 0 L 1 -8.1875 L 6.109375 -8.1875 L 6.109375 -7.390625 L 1.859375 -7.390625 L 1.859375 -4.6875 L 5.59375 -4.6875 L 5.59375 -3.921875 Z M 1.859375 -3.921875 "/></g></g></g><g fill="#2a6c4c" fill-opacity="1"><g transform="translate(59.831247, 131.761328)"><g><path d="M 6.546875 0 L 5.5 0 L 3.34375 -2.984375 L 1.859375 -2.984375 L 1.859375 0 L 1 0 L 1 -8.1875 L 3.5 -8.1875 C 4.425781 -8.1875 5.15625 -7.960938 5.6875 -7.515625 C 6.21875 -7.066406 6.484375 -6.425781 6.484375 -5.59375 C 6.484375 -4.90625 6.296875 -4.34375 5.921875 -3.90625 C 5.554688 -3.476562 5.03125 -3.195312 4.34375 -3.0625 Z M 3.46875 -7.390625 L 1.859375 -7.390625 L 1.859375 -3.765625 L 3.453125 -3.765625 C 4.140625 -3.765625 4.671875 -3.910156 5.046875 -4.203125 C 5.421875 -4.503906 5.609375 -4.96875 5.609375 -5.59375 C 5.609375 -6.175781 5.425781 -6.617188 5.0625 -6.921875 C 4.695312 -7.234375 4.164062 -7.390625 3.46875 -7.390625 Z M 3.46875 -7.390625 "/></g></g></g><g fill="#2a6c4c" fill-opacity="1"><g transform="translate(70.806157, 131.761328)"><g><path d="M 1.859375 0 L 1 0 L 1 -8.1875 L 1.859375 -8.1875 Z M 1.859375 0 "/></g></g></g><g fill="#2a6c4c" fill-opacity="1"><g transform="translate(77.643976, 131.761328)"><g><path d="M 3.09375 0.109375 C 2.625 0.109375 2.160156 0.0546875 1.703125 -0.046875 C 1.242188 -0.148438 0.832031 -0.300781 0.46875 -0.5 L 0.578125 -1.328125 C 0.953125 -1.109375 1.363281 -0.945312 1.8125 -0.84375 C 2.257812 -0.75 2.671875 -0.703125 3.046875 -0.703125 C 3.410156 -0.703125 3.738281 -0.742188 4.03125 -0.828125 C 4.320312 -0.921875 4.554688 -1.066406 4.734375 -1.265625 C 4.910156 -1.472656 5 -1.742188 5 -2.078125 C 5 -2.410156 4.914062 -2.679688 4.75 -2.890625 C 4.59375 -3.109375 4.367188 -3.285156 4.078125 -3.421875 C 3.785156 -3.566406 3.445312 -3.707031 3.0625 -3.84375 C 2.332031 -4.082031 1.75 -4.375 1.3125 -4.71875 C 0.882812 -5.070312 0.671875 -5.546875 0.671875 -6.140625 C 0.671875 -6.609375 0.785156 -7.003906 1.015625 -7.328125 C 1.253906 -7.648438 1.570312 -7.890625 1.96875 -8.046875 C 2.375 -8.203125 2.820312 -8.28125 3.3125 -8.28125 C 3.675781 -8.28125 4.046875 -8.238281 4.421875 -8.15625 C 4.804688 -8.082031 5.179688 -7.953125 5.546875 -7.765625 L 5.40625 -6.9375 C 4.695312 -7.289062 4.007812 -7.46875 3.34375 -7.46875 C 3.019531 -7.46875 2.722656 -7.425781 2.453125 -7.34375 C 2.179688 -7.257812 1.96875 -7.117188 1.8125 -6.921875 C 1.65625 -6.734375 1.578125 -6.472656 1.578125 -6.140625 C 1.578125 -5.742188 1.734375 -5.429688 2.046875 -5.203125 C 2.367188 -4.984375 2.828125 -4.769531 3.421875 -4.5625 C 3.921875 -4.40625 4.359375 -4.21875 4.734375 -4 C 5.109375 -3.789062 5.394531 -3.535156 5.59375 -3.234375 C 5.800781 -2.929688 5.90625 -2.550781 5.90625 -2.09375 C 5.90625 -1.613281 5.78125 -1.207031 5.53125 -0.875 C 5.28125 -0.550781 4.941406 -0.304688 4.515625 -0.140625 C 4.085938 0.0234375 3.613281 0.109375 3.09375 0.109375 Z M 3.09375 0.109375 "/></g></g></g><g fill="#2a6c4c" fill-opacity="1"><g transform="translate(88.04624, 131.761328)"><g><path d="M 1.859375 -3.921875 L 1.859375 -0.78125 L 6.203125 -0.78125 L 6.203125 0 L 1 0 L 1 -8.1875 L 6.109375 -8.1875 L 6.109375 -7.390625 L 1.859375 -7.390625 L 1.859375 -4.6875 L 5.59375 -4.6875 L 5.59375 -3.921875 Z M 1.859375 -3.921875 "/></g></g></g><g fill="#2a6c4c" fill-opacity="1"><g transform="translate(98.77573, 131.761328)"><g/></g></g><g fill="#2a6c4c" fill-opacity="1"><g transform="translate(105.718728, 131.761328)"><g><path d="M 7.3125 0 L 6.40625 0 L 5.6875 -1.96875 L 1.875 -1.96875 L 1.140625 0 L 0.25 0 L 3.3125 -8.1875 L 4.25 -8.1875 Z M 3.78125 -7.078125 L 2.171875 -2.75 L 5.390625 -2.75 Z M 3.78125 -7.078125 "/></g></g></g><g fill="#2a6c4c" fill-opacity="1"><g transform="translate(117.266282, 131.761328)"><g><path d="M 3.546875 0 L 1 0 L 1 -8.1875 L 3.546875 -8.1875 C 4.335938 -8.1875 5.019531 -8.019531 5.59375 -7.6875 C 6.164062 -7.363281 6.601562 -6.894531 6.90625 -6.28125 C 7.21875 -5.675781 7.375 -4.953125 7.375 -4.109375 C 7.375 -3.242188 7.21875 -2.503906 6.90625 -1.890625 C 6.601562 -1.285156 6.164062 -0.816406 5.59375 -0.484375 C 5.019531 -0.160156 4.335938 0 3.546875 0 Z M 1.859375 -7.40625 L 1.859375 -0.78125 L 3.5 -0.78125 C 4.425781 -0.78125 5.148438 -1.066406 5.671875 -1.640625 C 6.191406 -2.222656 6.453125 -3.039062 6.453125 -4.09375 C 6.453125 -5.144531 6.191406 -5.957031 5.671875 -6.53125 C 5.148438 -7.113281 4.425781 -7.40625 3.5 -7.40625 Z M 1.859375 -7.40625 "/></g></g></g><g fill="#2a6c4c" fill-opacity="1"><g transform="translate(129.292997, 131.761328)"><g><path d="M 4.109375 0 L 3.21875 0 L 0.25 -8.1875 L 1.171875 -8.1875 L 3.65625 -1.203125 L 3.671875 -1.203125 L 6.15625 -8.1875 L 7.078125 -8.1875 Z M 4.109375 0 "/></g></g></g><g fill="#2a6c4c" fill-opacity="1"><g transform="translate(140.595131, 131.761328)"><g><path d="M 1.859375 0 L 1 0 L 1 -8.1875 L 1.859375 -8.1875 Z M 1.859375 0 "/></g></g></g><g fill="#2a6c4c" fill-opacity="1"><g transform="translate(147.43295, 131.761328)"><g><path d="M 3.09375 0.109375 C 2.625 0.109375 2.160156 0.0546875 1.703125 -0.046875 C 1.242188 -0.148438 0.832031 -0.300781 0.46875 -0.5 L 0.578125 -1.328125 C 0.953125 -1.109375 1.363281 -0.945312 1.8125 -0.84375 C 2.257812 -0.75 2.671875 -0.703125 3.046875 -0.703125 C 3.410156 -0.703125 3.738281 -0.742188 4.03125 -0.828125 C 4.320312 -0.921875 4.554688 -1.066406 4.734375 -1.265625 C 4.910156 -1.472656 5 -1.742188 5 -2.078125 C 5 -2.410156 4.914062 -2.679688 4.75 -2.890625 C 4.59375 -3.109375 4.367188 -3.285156 4.078125 -3.421875 C 3.785156 -3.566406 3.445312 -3.707031 3.0625 -3.84375 C 2.332031 -4.082031 1.75 -4.375 1.3125 -4.71875 C 0.882812 -5.070312 0.671875 -5.546875 0.671875 -6.140625 C 0.671875 -6.609375 0.785156 -7.003906 1.015625 -7.328125 C 1.253906 -7.648438 1.570312 -7.890625 1.96875 -8.046875 C 2.375 -8.203125 2.820312 -8.28125 3.3125 -8.28125 C 3.675781 -8.28125 4.046875 -8.238281 4.421875 -8.15625 C 4.804688 -8.082031 5.179688 -7.953125 5.546875 -7.765625 L 5.40625 -6.9375 C 4.695312 -7.289062 4.007812 -7.46875 3.34375 -7.46875 C 3.019531 -7.46875 2.722656 -7.425781 2.453125 -7.34375 C 2.179688 -7.257812 1.96875 -7.117188 1.8125 -6.921875 C 1.65625 -6.734375 1.578125 -6.472656 1.578125 -6.140625 C 1.578125 -5.742188 1.734375 -5.429688 2.046875 -5.203125 C 2.367188 -4.984375 2.828125 -4.769531 3.421875 -4.5625 C 3.921875 -4.40625 4.359375 -4.21875 4.734375 -4 C 5.109375 -3.789062 5.394531 -3.535156 5.59375 -3.234375 C 5.800781 -2.929688 5.90625 -2.550781 5.90625 -2.09375 C 5.90625 -1.613281 5.78125 -1.207031 5.53125 -0.875 C 5.28125 -0.550781 4.941406 -0.304688 4.515625 -0.140625 C 4.085938 0.0234375 3.613281 0.109375 3.09375 0.109375 Z M 3.09375 0.109375 "/></g></g></g><g fill="#2a6c4c" fill-opacity="1"><g transform="translate(157.835215, 131.761328)"><g><path d="M 4.171875 0.109375 C 3.472656 0.109375 2.859375 -0.0546875 2.328125 -0.390625 C 1.804688 -0.734375 1.398438 -1.21875 1.109375 -1.84375 C 0.816406 -2.476562 0.671875 -3.226562 0.671875 -4.09375 C 0.671875 -4.945312 0.816406 -5.6875 1.109375 -6.3125 C 1.398438 -6.945312 1.804688 -7.4375 2.328125 -7.78125 C 2.859375 -8.125 3.472656 -8.296875 4.171875 -8.296875 C 4.867188 -8.296875 5.476562 -8.125 6 -7.78125 C 6.53125 -7.445312 6.941406 -6.96875 7.234375 -6.34375 C 7.523438 -5.71875 7.671875 -4.96875 7.671875 -4.09375 C 7.671875 -3.238281 7.523438 -2.492188 7.234375 -1.859375 C 6.941406 -1.234375 6.53125 -0.75 6 -0.40625 C 5.476562 -0.0625 4.867188 0.109375 4.171875 0.109375 Z M 4.171875 -0.703125 C 4.679688 -0.703125 5.128906 -0.832031 5.515625 -1.09375 C 5.898438 -1.363281 6.203125 -1.753906 6.421875 -2.265625 C 6.640625 -2.773438 6.75 -3.382812 6.75 -4.09375 C 6.75 -4.769531 6.644531 -5.359375 6.4375 -5.859375 C 6.238281 -6.367188 5.945312 -6.765625 5.5625 -7.046875 C 5.175781 -7.335938 4.710938 -7.484375 4.171875 -7.484375 C 3.660156 -7.484375 3.210938 -7.347656 2.828125 -7.078125 C 2.441406 -6.804688 2.140625 -6.421875 1.921875 -5.921875 C 1.703125 -5.421875 1.59375 -4.8125 1.59375 -4.09375 C 1.59375 -3.414062 1.695312 -2.820312 1.90625 -2.3125 C 2.113281 -1.800781 2.40625 -1.40625 2.78125 -1.125 C 3.164062 -0.84375 3.628906 -0.703125 4.171875 -0.703125 Z M 4.171875 -0.703125 "/></g></g></g><g fill="#2a6c4c" fill-opacity="1"><g transform="translate(170.165787, 131.761328)"><g><path d="M 6.546875 0 L 5.5 0 L 3.34375 -2.984375 L 1.859375 -2.984375 L 1.859375 0 L 1 0 L 1 -8.1875 L 3.5 -8.1875 C 4.425781 -8.1875 5.15625 -7.960938 5.6875 -7.515625 C 6.21875 -7.066406 6.484375 -6.425781 6.484375 -5.59375 C 6.484375 -4.90625 6.296875 -4.34375 5.921875 -3.90625 C 5.554688 -3.476562 5.03125 -3.195312 4.34375 -3.0625 Z M 3.46875 -7.390625 L 1.859375 -7.390625 L 1.859375 -3.765625 L 3.453125 -3.765625 C 4.140625 -3.765625 4.671875 -3.910156 5.046875 -4.203125 C 5.421875 -4.503906 5.609375 -4.96875 5.609375 -5.59375 C 5.609375 -6.175781 5.425781 -6.617188 5.0625 -6.921875 C 4.695312 -7.234375 4.164062 -7.390625 3.46875 -7.390625 Z M 3.46875 -7.390625 "/></g></g></g><g fill="#2a6c4c" fill-opacity="1"><g transform="translate(181.140696, 131.761328)"><g><path d="M 3.09375 0.109375 C 2.625 0.109375 2.160156 0.0546875 1.703125 -0.046875 C 1.242188 -0.148438 0.832031 -0.300781 0.46875 -0.5 L 0.578125 -1.328125 C 0.953125 -1.109375 1.363281 -0.945312 1.8125 -0.84375 C 2.257812 -0.75 2.671875 -0.703125 3.046875 -0.703125 C 3.410156 -0.703125 3.738281 -0.742188 4.03125 -0.828125 C 4.320312 -0.921875 4.554688 -1.066406 4.734375 -1.265625 C 4.910156 -1.472656 5 -1.742188 5 -2.078125 C 5 -2.410156 4.914062 -2.679688 4.75 -2.890625 C 4.59375 -3.109375 4.367188 -3.285156 4.078125 -3.421875 C 3.785156 -3.566406 3.445312 -3.707031 3.0625 -3.84375 C 2.332031 -4.082031 1.75 -4.375 1.3125 -4.71875 C 0.882812 -5.070312 0.671875 -5.546875 0.671875 -6.140625 C 0.671875 -6.609375 0.785156 -7.003906 1.015625 -7.328125 C 1.253906 -7.648438 1.570312 -7.890625 1.96875 -8.046875 C 2.375 -8.203125 2.820312 -8.28125 3.3125 -8.28125 C 3.675781 -8.28125 4.046875 -8.238281 4.421875 -8.15625 C 4.804688 -8.082031 5.179688 -7.953125 5.546875 -7.765625 L 5.40625 -6.9375 C 4.695312 -7.289062 4.007812 -7.46875 3.34375 -7.46875 C 3.019531 -7.46875 2.722656 -7.425781 2.453125 -7.34375 C 2.179688 -7.257812 1.96875 -7.117188 1.8125 -6.921875 C 1.65625 -6.734375 1.578125 -6.472656 1.578125 -6.140625 C 1.578125 -5.742188 1.734375 -5.429688 2.046875 -5.203125 C 2.367188 -4.984375 2.828125 -4.769531 3.421875 -4.5625 C 3.921875 -4.40625 4.359375 -4.21875 4.734375 -4 C 5.109375 -3.789062 5.394531 -3.535156 5.59375 -3.234375 C 5.800781 -2.929688 5.90625 -2.550781 5.90625 -2.09375 C 5.90625 -1.613281 5.78125 -1.207031 5.53125 -0.875 C 5.28125 -0.550781 4.941406 -0.304688 4.515625 -0.140625 C 4.085938 0.0234375 3.613281 0.109375 3.09375 0.109375 Z M 3.09375 0.109375 "/></g></g></g><g fill="#3f1215" fill-opacity="1"><g transform="translate(19.369545, 146.373665)"><g><path d="M 0.46875 0 L 0.46875 -3.78125 L 1.28125 -3.78125 L 1.28125 0 Z M 0.46875 0 "/></g></g></g><g fill="#3f1215" fill-opacity="1"><g transform="translate(22.582189, 146.373665)"><g><path d="M 3.828125 0 L 2.8125 0 L 1.171875 -2.859375 L 1.140625 -2.859375 C 1.148438 -2.742188 1.15625 -2.625 1.15625 -2.5 C 1.164062 -2.375 1.171875 -2.25 1.171875 -2.125 C 1.179688 -2.007812 1.1875 -1.894531 1.1875 -1.78125 L 1.1875 0 L 0.46875 0 L 0.46875 -3.78125 L 1.484375 -3.78125 L 3.125 -0.953125 L 3.140625 -0.953125 C 3.140625 -1.066406 3.132812 -1.179688 3.125 -1.296875 C 3.125 -1.410156 3.117188 -1.523438 3.109375 -1.640625 C 3.109375 -1.753906 3.109375 -1.867188 3.109375 -1.984375 L 3.109375 -3.78125 L 3.828125 -3.78125 Z M 3.828125 0 "/></g></g></g><g fill="#3f1215" fill-opacity="1"><g transform="translate(28.349523, 146.373665)"><g><path d="M 1.9375 0 L 1.140625 0 L 1.140625 -3.109375 L 0.109375 -3.109375 L 0.109375 -3.78125 L 2.96875 -3.78125 L 2.96875 -3.109375 L 1.9375 -3.109375 Z M 1.9375 0 "/></g></g></g><g fill="#3f1215" fill-opacity="1"><g transform="translate(32.877044, 146.373665)"><g><path d="M 2.65625 0 L 0.46875 0 L 0.46875 -3.78125 L 2.65625 -3.78125 L 2.65625 -3.125 L 1.28125 -3.125 L 1.28125 -2.296875 L 2.5625 -2.296875 L 2.5625 -1.640625 L 1.28125 -1.640625 L 1.28125 -0.65625 L 2.65625 -0.65625 Z M 2.65625 0 "/></g></g></g><g fill="#3f1215" fill-opacity="1"><g transform="translate(37.303618, 146.373665)"><g><path d="M 1.578125 -3.78125 C 1.921875 -3.78125 2.203125 -3.738281 2.421875 -3.65625 C 2.648438 -3.570312 2.816406 -3.445312 2.921875 -3.28125 C 3.035156 -3.113281 3.09375 -2.90625 3.09375 -2.65625 C 3.09375 -2.476562 3.054688 -2.320312 2.984375 -2.1875 C 2.921875 -2.0625 2.835938 -1.953125 2.734375 -1.859375 C 2.628906 -1.773438 2.515625 -1.703125 2.390625 -1.640625 L 3.5 0 L 2.609375 0 L 1.703125 -1.453125 L 1.28125 -1.453125 L 1.28125 0 L 0.46875 0 L 0.46875 -3.78125 Z M 1.515625 -3.125 L 1.28125 -3.125 L 1.28125 -2.109375 L 1.53125 -2.109375 C 1.800781 -2.109375 1.992188 -2.148438 2.109375 -2.234375 C 2.222656 -2.328125 2.28125 -2.457031 2.28125 -2.625 C 2.28125 -2.800781 2.21875 -2.925781 2.09375 -3 C 1.96875 -3.082031 1.773438 -3.125 1.515625 -3.125 Z M 1.515625 -3.125 "/></g></g></g><g fill="#3f1215" fill-opacity="1"><g transform="translate(42.260802, 146.373665)"><g><path d="M 3.828125 0 L 2.8125 0 L 1.171875 -2.859375 L 1.140625 -2.859375 C 1.148438 -2.742188 1.15625 -2.625 1.15625 -2.5 C 1.164062 -2.375 1.171875 -2.25 1.171875 -2.125 C 1.179688 -2.007812 1.1875 -1.894531 1.1875 -1.78125 L 1.1875 0 L 0.46875 0 L 0.46875 -3.78125 L 1.484375 -3.78125 L 3.125 -0.953125 L 3.140625 -0.953125 C 3.140625 -1.066406 3.132812 -1.179688 3.125 -1.296875 C 3.125 -1.410156 3.117188 -1.523438 3.109375 -1.640625 C 3.109375 -1.753906 3.109375 -1.867188 3.109375 -1.984375 L 3.109375 -3.78125 L 3.828125 -3.78125 Z M 3.828125 0 "/></g></g></g><g fill="#3f1215" fill-opacity="1"><g transform="translate(48.028137, 146.373665)"><g><path d="M 2.796875 0 L 2.515625 -0.90625 L 1.140625 -0.90625 L 0.859375 0 L 0 0 L 1.328125 -3.796875 L 2.3125 -3.796875 L 3.65625 0 Z M 2.328125 -1.578125 L 2.046875 -2.453125 C 2.035156 -2.515625 2.015625 -2.585938 1.984375 -2.671875 C 1.953125 -2.765625 1.921875 -2.859375 1.890625 -2.953125 C 1.867188 -3.054688 1.847656 -3.140625 1.828125 -3.203125 C 1.804688 -3.140625 1.78125 -3.054688 1.75 -2.953125 C 1.726562 -2.847656 1.703125 -2.75 1.671875 -2.65625 C 1.640625 -2.5625 1.617188 -2.492188 1.609375 -2.453125 L 1.34375 -1.578125 Z M 2.328125 -1.578125 "/></g></g></g><g fill="#3f1215" fill-opacity="1"><g transform="translate(53.143211, 146.373665)"><g><path d="M 1.9375 0 L 1.140625 0 L 1.140625 -3.109375 L 0.109375 -3.109375 L 0.109375 -3.78125 L 2.96875 -3.78125 L 2.96875 -3.109375 L 1.9375 -3.109375 Z M 1.9375 0 "/></g></g></g><g fill="#3f1215" fill-opacity="1"><g transform="translate(57.670732, 146.373665)"><g><path d="M 0.46875 0 L 0.46875 -3.78125 L 1.28125 -3.78125 L 1.28125 0 Z M 0.46875 0 "/></g></g></g><g fill="#3f1215" fill-opacity="1"><g transform="translate(60.883378, 146.373665)"><g><path d="M 3.90625 -1.890625 C 3.90625 -1.597656 3.867188 -1.332031 3.796875 -1.09375 C 3.722656 -0.863281 3.613281 -0.660156 3.46875 -0.484375 C 3.320312 -0.304688 3.132812 -0.171875 2.90625 -0.078125 C 2.6875 0.00390625 2.421875 0.046875 2.109375 0.046875 C 1.796875 0.046875 1.523438 0.00390625 1.296875 -0.078125 C 1.078125 -0.171875 0.894531 -0.304688 0.75 -0.484375 C 0.601562 -0.660156 0.492188 -0.867188 0.421875 -1.109375 C 0.347656 -1.347656 0.3125 -1.613281 0.3125 -1.90625 C 0.3125 -2.289062 0.375 -2.628906 0.5 -2.921875 C 0.625 -3.210938 0.820312 -3.4375 1.09375 -3.59375 C 1.363281 -3.757812 1.703125 -3.84375 2.109375 -3.84375 C 2.523438 -3.84375 2.863281 -3.757812 3.125 -3.59375 C 3.382812 -3.4375 3.578125 -3.210938 3.703125 -2.921875 C 3.835938 -2.628906 3.90625 -2.285156 3.90625 -1.890625 Z M 1.140625 -1.890625 C 1.140625 -1.628906 1.171875 -1.398438 1.234375 -1.203125 C 1.304688 -1.015625 1.410156 -0.867188 1.546875 -0.765625 C 1.691406 -0.671875 1.878906 -0.625 2.109375 -0.625 C 2.335938 -0.625 2.519531 -0.671875 2.65625 -0.765625 C 2.800781 -0.867188 2.90625 -1.015625 2.96875 -1.203125 C 3.03125 -1.398438 3.0625 -1.628906 3.0625 -1.890625 C 3.0625 -2.285156 2.988281 -2.597656 2.84375 -2.828125 C 2.695312 -3.054688 2.453125 -3.171875 2.109375 -3.171875 C 1.890625 -3.171875 1.707031 -3.117188 1.5625 -3.015625 C 1.414062 -2.910156 1.304688 -2.765625 1.234375 -2.578125 C 1.171875 -2.390625 1.140625 -2.160156 1.140625 -1.890625 Z M 1.140625 -1.890625 "/></g></g></g><g fill="#3f1215" fill-opacity="1"><g transform="translate(66.560121, 146.373665)"><g><path d="M 3.828125 0 L 2.8125 0 L 1.171875 -2.859375 L 1.140625 -2.859375 C 1.148438 -2.742188 1.15625 -2.625 1.15625 -2.5 C 1.164062 -2.375 1.171875 -2.25 1.171875 -2.125 C 1.179688 -2.007812 1.1875 -1.894531 1.1875 -1.78125 L 1.1875 0 L 0.46875 0 L 0.46875 -3.78125 L 1.484375 -3.78125 L 3.125 -0.953125 L 3.140625 -0.953125 C 3.140625 -1.066406 3.132812 -1.179688 3.125 -1.296875 C 3.125 -1.410156 3.117188 -1.523438 3.109375 -1.640625 C 3.109375 -1.753906 3.109375 -1.867188 3.109375 -1.984375 L 3.109375 -3.78125 L 3.828125 -3.78125 Z M 3.828125 0 "/></g></g></g><g fill="#3f1215" fill-opacity="1"><g transform="translate(72.327456, 146.373665)"><g><path d="M 2.796875 0 L 2.515625 -0.90625 L 1.140625 -0.90625 L 0.859375 0 L 0 0 L 1.328125 -3.796875 L 2.3125 -3.796875 L 3.65625 0 Z M 2.328125 -1.578125 L 2.046875 -2.453125 C 2.035156 -2.515625 2.015625 -2.585938 1.984375 -2.671875 C 1.953125 -2.765625 1.921875 -2.859375 1.890625 -2.953125 C 1.867188 -3.054688 1.847656 -3.140625 1.828125 -3.203125 C 1.804688 -3.140625 1.78125 -3.054688 1.75 -2.953125 C 1.726562 -2.847656 1.703125 -2.75 1.671875 -2.65625 C 1.640625 -2.5625 1.617188 -2.492188 1.609375 -2.453125 L 1.34375 -1.578125 Z M 2.328125 -1.578125 "/></g></g></g><g fill="#3f1215" fill-opacity="1"><g transform="translate(77.44253, 146.373665)"><g><path d="M 0.46875 0 L 0.46875 -3.78125 L 1.28125 -3.78125 L 1.28125 -0.65625 L 2.8125 -0.65625 L 2.8125 0 Z M 0.46875 0 "/></g></g></g><g fill="#3f1215" fill-opacity="1"><g transform="translate(81.89499, 146.373665)"><g/></g></g><g fill="#3f1215" fill-opacity="1"><g transform="translate(84.729738, 146.373665)"><g><path d="M 1.9375 0 L 1.140625 0 L 1.140625 -3.109375 L 0.109375 -3.109375 L 0.109375 -3.78125 L 2.96875 -3.78125 L 2.96875 -3.109375 L 1.9375 -3.109375 Z M 1.9375 0 "/></g></g></g><g fill="#3f1215" fill-opacity="1"><g transform="translate(89.25726, 146.373665)"><g><path d="M 2.796875 0 L 2.515625 -0.90625 L 1.140625 -0.90625 L 0.859375 0 L 0 0 L 1.328125 -3.796875 L 2.3125 -3.796875 L 3.65625 0 Z M 2.328125 -1.578125 L 2.046875 -2.453125 C 2.035156 -2.515625 2.015625 -2.585938 1.984375 -2.671875 C 1.953125 -2.765625 1.921875 -2.859375 1.890625 -2.953125 C 1.867188 -3.054688 1.847656 -3.140625 1.828125 -3.203125 C 1.804688 -3.140625 1.78125 -3.054688 1.75 -2.953125 C 1.726562 -2.847656 1.703125 -2.75 1.671875 -2.65625 C 1.640625 -2.5625 1.617188 -2.492188 1.609375 -2.453125 L 1.34375 -1.578125 Z M 2.328125 -1.578125 "/></g></g></g><g fill="#3f1215" fill-opacity="1"><g transform="translate(94.372334, 146.373665)"><g><path d="M 3.53125 0 L 2.625 0 L 1.734375 -1.4375 L 0.859375 0 L 0 0 L 1.25 -1.953125 L 0.078125 -3.78125 L 0.96875 -3.78125 L 1.78125 -2.421875 L 2.578125 -3.78125 L 3.4375 -3.78125 L 2.25 -1.90625 Z M 3.53125 0 "/></g></g></g><g fill="#3f1215" fill-opacity="1"><g transform="translate(99.365756, 146.373665)"><g/></g></g><g fill="#3f1215" fill-opacity="1"><g transform="translate(102.200504, 146.373665)"><g><path d="M 1.171875 -4.015625 L 1.75 -4.015625 L 1.75 1.203125 L 1.171875 1.203125 Z M 1.171875 -4.015625 "/></g></g></g><g fill="#3f1215" fill-opacity="1"><g transform="translate(106.577902, 146.373665)"><g/></g></g><g fill="#3f1215" fill-opacity="1"><g transform="translate(109.412651, 146.373665)"><g><path d="M 1.9375 0 L 1.140625 0 L 1.140625 -3.109375 L 0.109375 -3.109375 L 0.109375 -3.78125 L 2.96875 -3.78125 L 2.96875 -3.109375 L 1.9375 -3.109375 Z M 1.9375 0 "/></g></g></g><g fill="#3f1215" fill-opacity="1"><g transform="translate(113.940172, 146.373665)"><g><path d="M 1.578125 -3.78125 C 1.921875 -3.78125 2.203125 -3.738281 2.421875 -3.65625 C 2.648438 -3.570312 2.816406 -3.445312 2.921875 -3.28125 C 3.035156 -3.113281 3.09375 -2.90625 3.09375 -2.65625 C 3.09375 -2.476562 3.054688 -2.320312 2.984375 -2.1875 C 2.921875 -2.0625 2.835938 -1.953125 2.734375 -1.859375 C 2.628906 -1.773438 2.515625 -1.703125 2.390625 -1.640625 L 3.5 0 L 2.609375 0 L 1.703125 -1.453125 L 1.28125 -1.453125 L 1.28125 0 L 0.46875 0 L 0.46875 -3.78125 Z M 1.515625 -3.125 L 1.28125 -3.125 L 1.28125 -2.109375 L 1.53125 -2.109375 C 1.800781 -2.109375 1.992188 -2.148438 2.109375 -2.234375 C 2.222656 -2.328125 2.28125 -2.457031 2.28125 -2.625 C 2.28125 -2.800781 2.21875 -2.925781 2.09375 -3 C 1.96875 -3.082031 1.773438 -3.125 1.515625 -3.125 Z M 1.515625 -3.125 "/></g></g></g><g fill="#3f1215" fill-opacity="1"><g transform="translate(118.897357, 146.373665)"><g><path d="M 2.796875 0 L 2.515625 -0.90625 L 1.140625 -0.90625 L 0.859375 0 L 0 0 L 1.328125 -3.796875 L 2.3125 -3.796875 L 3.65625 0 Z M 2.328125 -1.578125 L 2.046875 -2.453125 C 2.035156 -2.515625 2.015625 -2.585938 1.984375 -2.671875 C 1.953125 -2.765625 1.921875 -2.859375 1.890625 -2.953125 C 1.867188 -3.054688 1.847656 -3.140625 1.828125 -3.203125 C 1.804688 -3.140625 1.78125 -3.054688 1.75 -2.953125 C 1.726562 -2.847656 1.703125 -2.75 1.671875 -2.65625 C 1.640625 -2.5625 1.617188 -2.492188 1.609375 -2.453125 L 1.34375 -1.578125 Z M 2.328125 -1.578125 "/></g></g></g><g fill="#3f1215" fill-opacity="1"><g transform="translate(124.012431, 146.373665)"><g><path d="M 3.828125 0 L 2.8125 0 L 1.171875 -2.859375 L 1.140625 -2.859375 C 1.148438 -2.742188 1.15625 -2.625 1.15625 -2.5 C 1.164062 -2.375 1.171875 -2.25 1.171875 -2.125 C 1.179688 -2.007812 1.1875 -1.894531 1.1875 -1.78125 L 1.1875 0 L 0.46875 0 L 0.46875 -3.78125 L 1.484375 -3.78125 L 3.125 -0.953125 L 3.140625 -0.953125 C 3.140625 -1.066406 3.132812 -1.179688 3.125 -1.296875 C 3.125 -1.410156 3.117188 -1.523438 3.109375 -1.640625 C 3.109375 -1.753906 3.109375 -1.867188 3.109375 -1.984375 L 3.109375 -3.78125 L 3.828125 -3.78125 Z M 3.828125 0 "/></g></g></g><g fill="#3f1215" fill-opacity="1"><g transform="translate(129.779766, 146.373665)"><g><path d="M 2.703125 -1.046875 C 2.703125 -0.828125 2.644531 -0.632812 2.53125 -0.46875 C 2.425781 -0.300781 2.269531 -0.171875 2.0625 -0.078125 C 1.863281 0.00390625 1.613281 0.046875 1.3125 0.046875 C 1.1875 0.046875 1.0625 0.0351562 0.9375 0.015625 C 0.8125 0.00390625 0.6875 -0.015625 0.5625 -0.046875 C 0.445312 -0.078125 0.34375 -0.117188 0.25 -0.171875 L 0.25 -0.921875 C 0.425781 -0.835938 0.609375 -0.765625 0.796875 -0.703125 C 0.992188 -0.640625 1.1875 -0.609375 1.375 -0.609375 C 1.507812 -0.609375 1.613281 -0.625 1.6875 -0.65625 C 1.769531 -0.695312 1.828125 -0.742188 1.859375 -0.796875 C 1.898438 -0.859375 1.921875 -0.929688 1.921875 -1.015625 C 1.921875 -1.109375 1.890625 -1.1875 1.828125 -1.25 C 1.765625 -1.320312 1.675781 -1.382812 1.5625 -1.4375 C 1.445312 -1.5 1.320312 -1.5625 1.1875 -1.625 C 1.101562 -1.664062 1.007812 -1.71875 0.90625 -1.78125 C 0.800781 -1.84375 0.703125 -1.914062 0.609375 -2 C 0.515625 -2.082031 0.4375 -2.1875 0.375 -2.3125 C 0.3125 -2.4375 0.28125 -2.585938 0.28125 -2.765625 C 0.28125 -2.984375 0.332031 -3.171875 0.4375 -3.328125 C 0.539062 -3.492188 0.6875 -3.617188 0.875 -3.703125 C 1.070312 -3.785156 1.300781 -3.828125 1.5625 -3.828125 C 1.757812 -3.828125 1.945312 -3.804688 2.125 -3.765625 C 2.300781 -3.722656 2.488281 -3.65625 2.6875 -3.5625 L 2.4375 -2.953125 C 2.257812 -3.015625 2.097656 -3.066406 1.953125 -3.109375 C 1.816406 -3.148438 1.679688 -3.171875 1.546875 -3.171875 C 1.441406 -3.171875 1.351562 -3.15625 1.28125 -3.125 C 1.207031 -3.09375 1.15625 -3.046875 1.125 -2.984375 C 1.09375 -2.929688 1.078125 -2.863281 1.078125 -2.78125 C 1.078125 -2.695312 1.101562 -2.625 1.15625 -2.5625 C 1.207031 -2.5 1.285156 -2.4375 1.390625 -2.375 C 1.492188 -2.320312 1.625 -2.257812 1.78125 -2.1875 C 1.976562 -2.09375 2.144531 -1.992188 2.28125 -1.890625 C 2.414062 -1.796875 2.519531 -1.679688 2.59375 -1.546875 C 2.664062 -1.410156 2.703125 -1.242188 2.703125 -1.046875 Z M 2.703125 -1.046875 "/></g></g></g><g fill="#3f1215" fill-opacity="1"><g transform="translate(134.157164, 146.373665)"><g><path d="M 1.265625 0 L 0.46875 0 L 0.46875 -3.78125 L 2.640625 -3.78125 L 2.640625 -3.125 L 1.265625 -3.125 L 1.265625 -2.15625 L 2.546875 -2.15625 L 2.546875 -1.5 L 1.265625 -1.5 Z M 1.265625 0 "/></g></g></g><g fill="#3f1215" fill-opacity="1"><g transform="translate(138.524202, 146.373665)"><g><path d="M 2.65625 0 L 0.46875 0 L 0.46875 -3.78125 L 2.65625 -3.78125 L 2.65625 -3.125 L 1.28125 -3.125 L 1.28125 -2.296875 L 2.5625 -2.296875 L 2.5625 -1.640625 L 1.28125 -1.640625 L 1.28125 -0.65625 L 2.65625 -0.65625 Z M 2.65625 0 "/></g></g></g><g fill="#3f1215" fill-opacity="1"><g transform="translate(142.950771, 146.373665)"><g><path d="M 1.578125 -3.78125 C 1.921875 -3.78125 2.203125 -3.738281 2.421875 -3.65625 C 2.648438 -3.570312 2.816406 -3.445312 2.921875 -3.28125 C 3.035156 -3.113281 3.09375 -2.90625 3.09375 -2.65625 C 3.09375 -2.476562 3.054688 -2.320312 2.984375 -2.1875 C 2.921875 -2.0625 2.835938 -1.953125 2.734375 -1.859375 C 2.628906 -1.773438 2.515625 -1.703125 2.390625 -1.640625 L 3.5 0 L 2.609375 0 L 1.703125 -1.453125 L 1.28125 -1.453125 L 1.28125 0 L 0.46875 0 L 0.46875 -3.78125 Z M 1.515625 -3.125 L 1.28125 -3.125 L 1.28125 -2.109375 L 1.53125 -2.109375 C 1.800781 -2.109375 1.992188 -2.148438 2.109375 -2.234375 C 2.222656 -2.328125 2.28125 -2.457031 2.28125 -2.625 C 2.28125 -2.800781 2.21875 -2.925781 2.09375 -3 C 1.96875 -3.082031 1.773438 -3.125 1.515625 -3.125 Z M 1.515625 -3.125 "/></g></g></g><g fill="#3f1215" fill-opacity="1"><g transform="translate(147.90795, 146.373665)"><g/></g></g><g fill="#3f1215" fill-opacity="1"><g transform="translate(150.742692, 146.373665)"><g><path d="M 1.6875 -3.78125 C 2.175781 -3.78125 2.53125 -3.675781 2.75 -3.46875 C 2.976562 -3.257812 3.09375 -2.972656 3.09375 -2.609375 C 3.09375 -2.441406 3.066406 -2.28125 3.015625 -2.125 C 2.960938 -1.976562 2.878906 -1.84375 2.765625 -1.71875 C 2.648438 -1.601562 2.5 -1.507812 2.3125 -1.4375 C 2.125 -1.375 1.894531 -1.34375 1.625 -1.34375 L 1.28125 -1.34375 L 1.28125 0 L 0.46875 0 L 0.46875 -3.78125 Z M 1.640625 -3.125 L 1.28125 -3.125 L 1.28125 -2 L 1.546875 -2 C 1.691406 -2 1.816406 -2.019531 1.921875 -2.0625 C 2.035156 -2.101562 2.125 -2.164062 2.1875 -2.25 C 2.25 -2.332031 2.28125 -2.441406 2.28125 -2.578125 C 2.28125 -2.765625 2.226562 -2.898438 2.125 -2.984375 C 2.019531 -3.078125 1.859375 -3.125 1.640625 -3.125 Z M 1.640625 -3.125 "/></g></g></g><g fill="#3f1215" fill-opacity="1"><g transform="translate(155.52904, 146.373665)"><g><path d="M 1.578125 -3.78125 C 1.921875 -3.78125 2.203125 -3.738281 2.421875 -3.65625 C 2.648438 -3.570312 2.816406 -3.445312 2.921875 -3.28125 C 3.035156 -3.113281 3.09375 -2.90625 3.09375 -2.65625 C 3.09375 -2.476562 3.054688 -2.320312 2.984375 -2.1875 C 2.921875 -2.0625 2.835938 -1.953125 2.734375 -1.859375 C 2.628906 -1.773438 2.515625 -1.703125 2.390625 -1.640625 L 3.5 0 L 2.609375 0 L 1.703125 -1.453125 L 1.28125 -1.453125 L 1.28125 0 L 0.46875 0 L 0.46875 -3.78125 Z M 1.515625 -3.125 L 1.28125 -3.125 L 1.28125 -2.109375 L 1.53125 -2.109375 C 1.800781 -2.109375 1.992188 -2.148438 2.109375 -2.234375 C 2.222656 -2.328125 2.28125 -2.457031 2.28125 -2.625 C 2.28125 -2.800781 2.21875 -2.925781 2.09375 -3 C 1.96875 -3.082031 1.773438 -3.125 1.515625 -3.125 Z M 1.515625 -3.125 "/></g></g></g><g fill="#3f1215" fill-opacity="1"><g transform="translate(160.486219, 146.373665)"><g><path d="M 0.46875 0 L 0.46875 -3.78125 L 1.28125 -3.78125 L 1.28125 0 Z M 0.46875 0 "/></g></g></g><g fill="#3f1215" fill-opacity="1"><g transform="translate(163.698858, 146.373665)"><g><path d="M 2.078125 -3.171875 C 1.929688 -3.171875 1.796875 -3.140625 1.671875 -3.078125 C 1.554688 -3.015625 1.457031 -2.925781 1.375 -2.8125 C 1.289062 -2.707031 1.226562 -2.570312 1.1875 -2.40625 C 1.15625 -2.25 1.140625 -2.070312 1.140625 -1.875 C 1.140625 -1.613281 1.171875 -1.382812 1.234375 -1.1875 C 1.296875 -1 1.394531 -0.851562 1.53125 -0.75 C 1.675781 -0.65625 1.859375 -0.609375 2.078125 -0.609375 C 2.234375 -0.609375 2.390625 -0.625 2.546875 -0.65625 C 2.703125 -0.695312 2.867188 -0.75 3.046875 -0.8125 L 3.046875 -0.140625 C 2.878906 -0.0664062 2.710938 -0.0195312 2.546875 0 C 2.390625 0.03125 2.207031 0.046875 2 0.046875 C 1.613281 0.046875 1.296875 -0.03125 1.046875 -0.1875 C 0.796875 -0.351562 0.609375 -0.578125 0.484375 -0.859375 C 0.367188 -1.148438 0.3125 -1.492188 0.3125 -1.890625 C 0.3125 -2.171875 0.347656 -2.429688 0.421875 -2.671875 C 0.503906 -2.910156 0.617188 -3.113281 0.765625 -3.28125 C 0.910156 -3.457031 1.09375 -3.59375 1.3125 -3.6875 C 1.539062 -3.78125 1.796875 -3.828125 2.078125 -3.828125 C 2.265625 -3.828125 2.453125 -3.800781 2.640625 -3.75 C 2.835938 -3.707031 3.019531 -3.644531 3.1875 -3.5625 L 2.9375 -2.921875 C 2.789062 -2.984375 2.644531 -3.039062 2.5 -3.09375 C 2.351562 -3.144531 2.210938 -3.171875 2.078125 -3.171875 Z M 2.078125 -3.171875 "/></g></g></g><g fill="#3f1215" fill-opacity="1"><g transform="translate(168.534384, 146.373665)"><g><path d="M 0.46875 0 L 0.46875 -3.78125 L 1.28125 -3.78125 L 1.28125 0 Z M 0.46875 0 "/></g></g></g><g fill="#3f1215" fill-opacity="1"><g transform="translate(171.747024, 146.373665)"><g><path d="M 3.828125 0 L 2.8125 0 L 1.171875 -2.859375 L 1.140625 -2.859375 C 1.148438 -2.742188 1.15625 -2.625 1.15625 -2.5 C 1.164062 -2.375 1.171875 -2.25 1.171875 -2.125 C 1.179688 -2.007812 1.1875 -1.894531 1.1875 -1.78125 L 1.1875 0 L 0.46875 0 L 0.46875 -3.78125 L 1.484375 -3.78125 L 3.125 -0.953125 L 3.140625 -0.953125 C 3.140625 -1.066406 3.132812 -1.179688 3.125 -1.296875 C 3.125 -1.410156 3.117188 -1.523438 3.109375 -1.640625 C 3.109375 -1.753906 3.109375 -1.867188 3.109375 -1.984375 L 3.109375 -3.78125 L 3.828125 -3.78125 Z M 3.828125 0 "/></g></g></g><g fill="#3f1215" fill-opacity="1"><g transform="translate(177.514352, 146.373665)"><g><path d="M 1.90625 -2.125 L 3.40625 -2.125 L 3.40625 -0.15625 C 3.207031 -0.09375 3 -0.0390625 2.78125 0 C 2.570312 0.03125 2.332031 0.046875 2.0625 0.046875 C 1.6875 0.046875 1.367188 -0.0234375 1.109375 -0.171875 C 0.847656 -0.316406 0.648438 -0.535156 0.515625 -0.828125 C 0.378906 -1.117188 0.3125 -1.472656 0.3125 -1.890625 C 0.3125 -2.285156 0.382812 -2.628906 0.53125 -2.921875 C 0.6875 -3.210938 0.910156 -3.4375 1.203125 -3.59375 C 1.492188 -3.75 1.851562 -3.828125 2.28125 -3.828125 C 2.476562 -3.828125 2.675781 -3.804688 2.875 -3.765625 C 3.070312 -3.722656 3.25 -3.671875 3.40625 -3.609375 L 3.140625 -2.96875 C 3.023438 -3.019531 2.890625 -3.066406 2.734375 -3.109375 C 2.585938 -3.148438 2.4375 -3.171875 2.28125 -3.171875 C 2.039062 -3.171875 1.835938 -3.113281 1.671875 -3 C 1.503906 -2.894531 1.375 -2.742188 1.28125 -2.546875 C 1.1875 -2.359375 1.140625 -2.132812 1.140625 -1.875 C 1.140625 -1.632812 1.171875 -1.414062 1.234375 -1.21875 C 1.296875 -1.03125 1.398438 -0.878906 1.546875 -0.765625 C 1.691406 -0.660156 1.882812 -0.609375 2.125 -0.609375 C 2.226562 -0.609375 2.320312 -0.613281 2.40625 -0.625 C 2.488281 -0.644531 2.5625 -0.660156 2.625 -0.671875 L 2.625 -1.453125 L 1.90625 -1.453125 Z M 1.90625 -2.125 "/></g></g></g><g fill="#3f1215" fill-opacity="1"><g transform="translate(182.810603, 146.373665)"><g/></g></g><g fill="#3f1215" fill-opacity="1"><g transform="translate(185.645344, 146.373665)"><g><path d="M 1.171875 -4.015625 L 1.75 -4.015625 L 1.75 1.203125 L 1.171875 1.203125 Z M 1.171875 -4.015625 "/></g></g></g><g fill="#3f1215" fill-opacity="1"><g transform="translate(190.022736, 146.373665)"><g/></g></g><g fill="#3f1215" fill-opacity="1"><g transform="translate(192.857477, 146.373665)"><g><path d="M 2.65625 0 L 0.46875 0 L 0.46875 -3.78125 L 2.65625 -3.78125 L 2.65625 -3.125 L 1.28125 -3.125 L 1.28125 -2.296875 L 2.5625 -2.296875 L 2.5625 -1.640625 L 1.28125 -1.640625 L 1.28125 -0.65625 L 2.65625 -0.65625 Z M 2.65625 0 "/></g></g></g><g fill="#3f1215" fill-opacity="1"><g transform="translate(197.284047, 146.373665)"><g><path d="M 2.703125 -1.046875 C 2.703125 -0.828125 2.644531 -0.632812 2.53125 -0.46875 C 2.425781 -0.300781 2.269531 -0.171875 2.0625 -0.078125 C 1.863281 0.00390625 1.613281 0.046875 1.3125 0.046875 C 1.1875 0.046875 1.0625 0.0351562 0.9375 0.015625 C 0.8125 0.00390625 0.6875 -0.015625 0.5625 -0.046875 C 0.445312 -0.078125 0.34375 -0.117188 0.25 -0.171875 L 0.25 -0.921875 C 0.425781 -0.835938 0.609375 -0.765625 0.796875 -0.703125 C 0.992188 -0.640625 1.1875 -0.609375 1.375 -0.609375 C 1.507812 -0.609375 1.613281 -0.625 1.6875 -0.65625 C 1.769531 -0.695312 1.828125 -0.742188 1.859375 -0.796875 C 1.898438 -0.859375 1.921875 -0.929688 1.921875 -1.015625 C 1.921875 -1.109375 1.890625 -1.1875 1.828125 -1.25 C 1.765625 -1.320312 1.675781 -1.382812 1.5625 -1.4375 C 1.445312 -1.5 1.320312 -1.5625 1.1875 -1.625 C 1.101562 -1.664062 1.007812 -1.71875 0.90625 -1.78125 C 0.800781 -1.84375 0.703125 -1.914062 0.609375 -2 C 0.515625 -2.082031 0.4375 -2.1875 0.375 -2.3125 C 0.3125 -2.4375 0.28125 -2.585938 0.28125 -2.765625 C 0.28125 -2.984375 0.332031 -3.171875 0.4375 -3.328125 C 0.539062 -3.492188 0.6875 -3.617188 0.875 -3.703125 C 1.070312 -3.785156 1.300781 -3.828125 1.5625 -3.828125 C 1.757812 -3.828125 1.945312 -3.804688 2.125 -3.765625 C 2.300781 -3.722656 2.488281 -3.65625 2.6875 -3.5625 L 2.4375 -2.953125 C 2.257812 -3.015625 2.097656 -3.066406 1.953125 -3.109375 C 1.816406 -3.148438 1.679688 -3.171875 1.546875 -3.171875 C 1.441406 -3.171875 1.351562 -3.15625 1.28125 -3.125 C 1.207031 -3.09375 1.15625 -3.046875 1.125 -2.984375 C 1.09375 -2.929688 1.078125 -2.863281 1.078125 -2.78125 C 1.078125 -2.695312 1.101562 -2.625 1.15625 -2.5625 C 1.207031 -2.5 1.285156 -2.4375 1.390625 -2.375 C 1.492188 -2.320312 1.625 -2.257812 1.78125 -2.1875 C 1.976562 -2.09375 2.144531 -1.992188 2.28125 -1.890625 C 2.414062 -1.796875 2.519531 -1.679688 2.59375 -1.546875 C 2.664062 -1.410156 2.703125 -1.242188 2.703125 -1.046875 Z M 2.703125 -1.046875 "/></g></g></g><g fill="#3f1215" fill-opacity="1"><g transform="translate(201.661438, 146.373665)"><g><path d="M 1.90625 -2.125 L 3.40625 -2.125 L 3.40625 -0.15625 C 3.207031 -0.09375 3 -0.0390625 2.78125 0 C 2.570312 0.03125 2.332031 0.046875 2.0625 0.046875 C 1.6875 0.046875 1.367188 -0.0234375 1.109375 -0.171875 C 0.847656 -0.316406 0.648438 -0.535156 0.515625 -0.828125 C 0.378906 -1.117188 0.3125 -1.472656 0.3125 -1.890625 C 0.3125 -2.285156 0.382812 -2.628906 0.53125 -2.921875 C 0.6875 -3.210938 0.910156 -3.4375 1.203125 -3.59375 C 1.492188 -3.75 1.851562 -3.828125 2.28125 -3.828125 C 2.476562 -3.828125 2.675781 -3.804688 2.875 -3.765625 C 3.070312 -3.722656 3.25 -3.671875 3.40625 -3.609375 L 3.140625 -2.96875 C 3.023438 -3.019531 2.890625 -3.066406 2.734375 -3.109375 C 2.585938 -3.148438 2.4375 -3.171875 2.28125 -3.171875 C 2.039062 -3.171875 1.835938 -3.113281 1.671875 -3 C 1.503906 -2.894531 1.375 -2.742188 1.28125 -2.546875 C 1.1875 -2.359375 1.140625 -2.132812 1.140625 -1.875 C 1.140625 -1.632812 1.171875 -1.414062 1.234375 -1.21875 C 1.296875 -1.03125 1.398438 -0.878906 1.546875 -0.765625 C 1.691406 -0.660156 1.882812 -0.609375 2.125 -0.609375 C 2.226562 -0.609375 2.320312 -0.613281 2.40625 -0.625 C 2.488281 -0.644531 2.5625 -0.660156 2.625 -0.671875 L 2.625 -1.453125 L 1.90625 -1.453125 Z M 1.90625 -2.125 "/></g></g></g></svg>